<svg xmlns="http://www.w3.org/2000/svg" viewBox="0 0 56.7 56.7"><path fill="#D9E3E8" d="M1.8 12.4H55c1 0 1.8.8 1.8 1.8V55c0 1-.8 1.8-1.8 1.8H1.8C.8 56.8 0 56 0 55V14.2c0-1 .8-1.8 1.8-1.8z"/><path fill="#EF5B7A" d="M4.4 15.1h47.8c1 0 1.8.8 1.8 1.8v35.4c0 1-.8 1.8-1.8 1.8H4.4c-1 0-1.8-.8-1.8-1.8V16.8c.1-.9.9-1.7 1.8-1.7z"/><path fill="#FFF" d="M6.3 26.5v-9.8h2v3.7h3.8v-3.7h2v9.8h-2v-4.4H8.4v4.4H6.3zm17.1-8h-5.2v2.1h4.7v1.7h-4.7v2.5h5.4v1.8h-7.4v-9.8h7.1v1.7zm1.8-1.7h2v8h4.9v1.8h-6.9v-9.8zm8.3 0h2v8h4.9v1.8h-6.9v-9.8zM48 24.2c.5-.7.8-1.6.7-2.5.1-.9-.2-1.8-.7-2.5a2.5 2.5 0 0 0-3.6-.3l-.3.3c-.5.7-.8 1.6-.7 2.5-.1.9.2 1.8.7 2.5a2.5 2.5 0 0 0 3.6.3l.3-.3zm1.3 1.5c-.9.8-2 1.2-3.2 1.1-1.2.1-2.3-.3-3.2-1.1a5.4 5.4 0 0 1-1.5-4 5 5 0 0 1 1.5-4c.9-.8 2-1.2 3.2-1.1 1.2-.1 2.3.3 3.2 1.1 1 1.1 1.6 2.5 1.5 4a6 6 0 0 1-1.5 4z"/><path fill="#8A969D" d="M32.8 12.4c0 .9-.7 1.7-1.7 1.7h-5.5c-.9 0-1.7-.8-1.7-1.7V2.6c0-.9.7-1.7 1.7-1.7h5.5c.9 0 1.7.8 1.7 1.7v9.8z"/><path fill="#B0BCC5" d="M32.8 11.6c0 .9-.7 1.7-1.7 1.7h-5.5c-.9 0-1.7-.8-1.7-1.7V1.7c0-.9.7-1.7 1.7-1.7h5.5c.9 0 1.7.8 1.7 1.7v9.9z"/><path fill="#FFF" d="M7.1 28.4h42.5c1 0 1.8.8 1.8 1.8v19.5c0 1-.8 1.8-1.8 1.8H7.1c-1 0-1.8-.8-1.8-1.8V30.1c0-1 .8-1.7 1.8-1.7z"/><path fill="#EF5B7A" d="M13.4 30.1h1.3v4.2h-.8v-3.6l-.9 3.6h-.9l-.8-3.6v3.6h-.8v-4.2h1.3l.8 3.3.8-3.3zm2.1 4.8H15.8l.2-.1.1-.2.1-.2-1.1-3.2h.9l.7 2.3.6-2.3h.9l-1.1 3.1-.5 1.1c-.2.2-.5.2-.7.2h-.4v-.7zm7.3-3.5c.2.2.3.5.3.8v2.2h-.8v-1.9l-.1-.4c-.1-.2-.3-.3-.5-.2-.2 0-.5.1-.6.3l-.1.5v1.7h-.8v-3.1h.8v.5l.3-.4.6-.2c.4-.1.6 0 .9.2zm2.8 1.4l-.1.1-.2.1H25l-.4.1-.2.3.1.3.3.1.5-.1c.2-.1.3-.3.2-.6l.1-.3zm-.5-.4l.3-.1.2-.2-.1-.3-.4-.1-.4.1-.1.3h-.8l.2-.7c.3-.3.7-.4 1.1-.4l.9.2c.3.2.4.5.4.8v2l.1.1v.2h-.9v-.2-.2l-.4.3-.6.2-.7-.2a1 1 0 0 1-.3-.7c0-.3.2-.7.5-.8l.7-.2.3-.1zm5.9-1.2l.4.3.2.4v2.5h-.8v-2-.3l-.4-.2c-.2 0-.4.1-.5.3l-.1.4v1.9H29v-1.9l-.1-.4c-.1-.2-.2-.2-.4-.2l-.5.2-.1.4v1.9H27v-3.1h.8v.5l.3-.3.6-.2c.2 0 .4 0 .6.2l.3.4.4-.4.6-.1c.1-.4.2-.3.4-.3zm2.1.8l-.2.5h1.4l-.2-.5a.8.8 0 0 0-.5-.2c-.2 0-.4 0-.5.2zm1.2-.7l.5.5.2.6v.6h-2.3c0 .3.1.5.3.7l.5.1.5-.1.2-.3h.8l-.3.6c-.3.3-.7.5-1.2.5-.4 0-.8-.1-1.1-.4-.3-.3-.5-.8-.5-1.2 0-.5.1-.9.4-1.2.3-.3.7-.4 1.1-.4.4-.2.7-.2.9 0zm2.9-.1h.8v3.2h-.8v-3.2zm.8-.4h-.8V30h.8v.8zm1.4 2.5l.1.3.6.2.4-.1.1-.2-.1-.2a3 3 0 0 0-.8-.2c-.3 0-.5-.2-.8-.3-.2-.1-.2-.4-.2-.6 0-.3.1-.6.3-.7.3-.2.6-.3 1-.3l1 .2c.3.2.4.5.4.8h-.8l-.1-.2a.8.8 0 0 0-.5-.2l-.4.1-.1.2.1.2.8.2.7.3c.2.2.2.4.2.6 0 .3-.1.6-.3.8a2 2 0 0 1-1.1.3 2 2 0 0 1-1.1-.3c-.2-.2-.4-.5-.3-.8l.9-.1zm2.6.1h.9v.8H42v-.8zm1.6 0h.9v.8h-.9v-.8zm1.7 0h.9v.8h-.9v-.8z"/></svg>