<svg id="Layer_1" data-name="Layer 1" xmlns="http://www.w3.org/2000/svg" viewBox="0 0 64 64"><defs><style>.cls-1{fill:#88664d;}.cls-2{fill:#f8c3d2;}.cls-3{fill:#dfab7d;}.cls-4{fill:#3b302a;}.cls-5{fill:#fcd5bb;}.cls-6{fill:#dcb098;}</style></defs><title>sjmdicon-silence</title><ellipse class="cls-1" cx="53.81" cy="30.97" rx="8.27" ry="8.25"/><ellipse class="cls-2" cx="53.81" cy="30.97" rx="5.39" ry="5.38"/><ellipse class="cls-1" cx="10.19" cy="30.97" rx="8.27" ry="8.25"/><ellipse class="cls-2" cx="10.19" cy="30.97" rx="5.39" ry="5.38"/><path class="cls-1" d="M43.41,8.72c1.15-.61,1.89-.92,1.89-.92a41.7,41.7,0,0,0-8.5-2.11,11.78,11.78,0,0,1,2.14-1.33c-20.48-2.89-30.23,9-30.23,19.51H55.28C54.58,16.54,50.49,11.52,43.41,8.72Z"/><path class="cls-1" d="M55.39,25.55C55.39,15.82,44.92,7.93,32,7.93S8.61,15.82,8.61,25.55A13.79,13.79,0,0,0,10.25,32a13.75,13.75,0,0,0-1.64,6.44c0,9.74,10.47,17.63,23.39,17.63s23.39-7.89,23.39-17.63A13.78,13.78,0,0,0,53.75,32,13.79,13.79,0,0,0,55.39,25.55Z"/><path class="cls-3" d="M52.08,26.19C52.08,9.21,32,20,32,20S11.92,9.21,11.92,26.19c0,4.75,2.93,9,7.5,11.75a9,9,0,0,0-2.12,5.68c0,6.1,6.59,11,14.7,11s14.7-4.94,14.7-11a9,9,0,0,0-2.12-5.68C49.15,35.18,52.08,30.94,52.08,26.19Z"/><path class="cls-4" d="M35.15,36.76c0,1.14-.44,2.06-1,2.06s-1-.92-1-2.06.45-2.07,1-2.07S35.15,35.62,35.15,36.76Z"/><path class="cls-4" d="M30.85,36.76c0,1.14-.45,2.06-1,2.06s-1-.92-1-2.06.44-2.07,1-2.07S30.85,35.62,30.85,36.76Z"/><ellipse class="cls-4" cx="40.71" cy="29.74" rx="3.51" ry="4.51"/><ellipse class="cls-4" cx="23.3" cy="29.74" rx="3.51" ry="4.51"/><polygon class="cls-1" points="14.85 50.05 6.5 60.08 19.49 60.08 23.5 56.48 14.85 50.05"/><path class="cls-5" d="M20.19,41.37s4.9-4.5,9.52-4c2.29.27-7.1,7.6-7.1,7.6s9.74-8.25,11.75-5.66c1.83,2.35-8.95,9.85-8.95,9.85s10-8.08,9.68-4.57c-.34,3.88-7.9,12.9-12.52,13.82-6.66,1.32-11.82-2.92-8.34-17.56C16,33.56,17.77,41.75,20.19,41.37Z"/><polygon class="cls-1" points="48.38 48.25 59.03 60.08 45.02 60.08 42.84 57.48 48.38 48.25"/><path class="cls-6" d="M38.25,41.71s-6.24-2.3-10.31,0C25.93,42.8,37.4,46,37.4,46s-12.14-3.92-13-.75c-.8,2.87,12,5.69,12,5.69S24.1,47.28,25.72,50.4c1.79,3.46,12.22,8.92,16.84,8C49.22,57.1,40.63,41.14,38.25,41.71Z"/><path class="cls-5" d="M39.58,41.71s-6.24-2.3-10.31,0c-2,1.12,9.46,4.32,9.46,4.32s-12.15-3.92-13-.75c-.8,2.87,12,5.69,12,5.69s-12.31-3.66-10.69-.54c1.79,3.46,12.22,8.92,16.84,8,6.66-1.31,9.82-7.2,1-19.41C40.5,32.89,42,41.14,39.58,41.71Z"/></svg>