<svg id="Layer_1" data-name="Layer 1" xmlns="http://www.w3.org/2000/svg" viewBox="0 0 64 64"><defs><style>.cls-1{fill:#d0d0d0;}.cls-2{fill:#b7c1c3;}.cls-3{fill:#2590ba;}.cls-4{fill:#545c61;}.cls-5{fill:#dab370;}.cls-6{fill:#fff;}.cls-7{fill:#6b777d;}</style></defs><title>sjmdicon-justice</title><path class="cls-1" d="M6.17,34.8h15L13.66,15.73Zm17.58,1.79H3.57L13.66,10.91Z"/><path class="cls-1" d="M42.85,34.8h15L50.34,15.73Zm17.58,1.79H40.25L50.34,10.91Z"/><path class="cls-2" d="M49.89,10.73,46.6,9.43C42.4,7.71,37.18,5.56,32,5.56S21.6,7.71,17.4,9.43l-3.29,1.3-3.23,2.49s2.6,1.65,3.95,1.16c1-.38,2.18-.85,3.39-1.34,4-1.65,9-3.7,13.78-3.7s9.76,2.05,13.78,3.7c1.21.5,2.35,1,3.39,1.34,1.35.49,3.95-1.16,3.95-1.16Z"/><path class="cls-3" d="M2.66,34.75a11,11,0,1,0,22,0Z"/><path class="cls-3" d="M39.34,34.75a11,11,0,1,0,22,0Z"/><rect class="cls-2" x="30.17" y="12.74" width="3.67" height="40.35"/><rect class="cls-1" x="29.04" y="18.95" width="5.92" height="34.14"/><rect class="cls-4" x="27.82" y="36.59" width="8.36" height="19.25"/><circle class="cls-5" cx="13.66" cy="13.66" r="3.67"/><circle class="cls-4" cx="50.34" cy="13.66" r="3.67" transform="translate(-1.4 20.3) rotate(-22.5)"/><circle class="cls-4" cx="13.66" cy="13.66" r="3.67"/><path class="cls-6" d="M13.66,11.83a1.83,1.83,0,1,1-1.83,1.83A1.83,1.83,0,0,1,13.66,11.83Z"/><path class="cls-6" d="M50.34,11.83a1.83,1.83,0,1,1-1.83,1.83A1.83,1.83,0,0,1,50.34,11.83Z"/><circle class="cls-1" cx="32" cy="8.16" r="5.5"/><path class="cls-1" d="M32,44.84c-8.1,0-14.67,4.1-14.67,9.17H46.67C46.67,48.94,40.1,44.84,32,44.84Z"/><rect class="cls-4" x="15.49" y="54.01" width="33.01" height="3.67"/><rect class="cls-7" x="11.83" y="57.68" width="40.35" height="3.67"/></svg>