<svg id="Layer_1" data-name="Layer 1" xmlns="http://www.w3.org/2000/svg" viewBox="0 0 64 64"><defs><style>.cls-1{fill:#2590ba;}.cls-2{fill:#adad21;}.cls-3{fill:#67c2e7;}.cls-4{fill:#f3f602;}.cls-5{opacity:0.3;isolation:isolate;}.cls-6{fill:#addff4;}.cls-7{fill:#eeae1e;}.cls-8{fill:#cece05;}.cls-9{fill:#666416;}</style></defs><title>sjmdicon-gift</title><path class="cls-1" d="M33.27,30.28V62s13.06-9.19,22.26-11.91c0,0,.37-19.6,6.1-29.43Z"/><path class="cls-2" d="M41.53,57.15s.55-28.09,1.53-29.55,9.65-3,9.65-3-3.54,26.31-2.65,28A69,69,0,0,0,41.53,57.15Z"/><path class="cls-3" d="M33.27,62A70.2,70.2,0,0,0,9.8,50.09S10.93,34,5.67,21.66l27.6,8.62Z"/><path class="cls-4" d="M15.6,52.69s8.38,3.44,9,4.46.57-28.25.57-28.25S13.7,25.72,12.71,25.72A91.36,91.36,0,0,1,15.6,52.69Z"/><g class="cls-5"><path d="M33.27,30.28v5.3L59,26.79a30.39,30.39,0,0,1,2.61-6.13Z"/></g><g class="cls-5"><path d="M7.56,27.15a43.91,43.91,0,0,0-1.89-5.49l27.61,8.62v5.3Z"/></g><polygon class="cls-6" points="3.42 18.86 31.96 25.18 63.42 17.64 32.5 15.92 3.42 18.86"/><polygon class="cls-3" points="3.42 18.86 5.67 25.18 31.96 32.57 31.96 25.18 3.42 18.86"/><path class="cls-1" d="M32,32.57s23.76-8.83,29.67-9.18a15.47,15.47,0,0,1,1.79-5.75L32,25.18v7.39Z"/><polygon class="cls-7" points="11.96 20.76 17.69 26.26 24.08 23.44 33.42 20.55 45.06 22 51.12 23.21 56.02 19.42 11.96 20.76"/><polygon class="cls-4" points="24.08 23.44 33.42 20.55 45.06 22 56.02 19.42 32.85 17.16 11.96 20.76 24.08 23.44"/><polygon class="cls-4" points="11.96 20.76 11.96 27.77 23.63 30.99 24.08 23.44 11.96 20.76"/><polygon class="cls-8" points="45.06 22 45.23 28.68 55.25 25.72 56.02 19.42 45.06 22"/><path class="cls-8" d="M38.67,17.34s0-7,6.77-13.11c0,0-4.14,1.47-6.06,1.1C37,4.87,36.26,2,36.26,2s-5.84,12.59-4.13,14.24S38.67,17.34,38.67,17.34Z"/><path class="cls-4" d="M29.86,21.36A29.89,29.89,0,0,0,17.69,9.19s6.47-.65,8-1.4a7.45,7.45,0,0,0,3-3.37S36,17.06,35.33,19,29.86,21.36,29.86,21.36Z"/><path class="cls-8" d="M34,20.46a42.3,42.3,0,0,1-13.9,2.36C3.74,22.82,1.37,11,17.57,12.12,30.9,13.07,34,20.46,34,20.46Z"/><path class="cls-8" d="M32.87,20.42a49.3,49.3,0,0,0,13.91-1.14c14-3.56,8.82-14.24-4.35-9.72C31.59,13.27,32.87,20.42,32.87,20.42Z"/><path class="cls-9" d="M34,20.46a26.42,26.42,0,0,1-8.67,1.47c-10.21,0-11.68-7.4-1.58-6.67C32.06,15.85,34,20.46,34,20.46Z"/><path class="cls-9" d="M34,20.46a34.3,34.3,0,0,0,9.7-.8c9.78-2.48,6.15-9.93-3-6.78C33.11,15.47,34,20.46,34,20.46Z"/></svg>