<svg id="Layer_1" data-name="Layer 1" xmlns="http://www.w3.org/2000/svg" viewBox="0 0 64 64"><defs><style>.cls-1{fill:#dee8ee;}.cls-2{fill:#bac2c7;}.cls-3{fill:#67c2e7;}.cls-4{fill:#30a4bf;}.cls-5{opacity:0.7;}.cls-6{fill:#c171ad;}.cls-7{fill:#ecb952;}.cls-8{fill:#eef8fb;}.cls-9{fill:#5c63ac;}.cls-10{fill:#f27037;}.cls-11{fill:#6c7431;}.cls-12{fill:#e7e755;}.cls-13{fill:#ee3a39;}.cls-14{fill:#fff;}</style></defs><title>sjmdicon-map</title><polygon class="cls-1" points="21.72 56.34 2.29 57.99 8.33 5.26 27.11 4.03 21.72 56.34"/><polygon class="cls-2" points="43.27 61.7 21.72 56.34 27.11 4.03 40.85 9.97 43.27 61.7"/><polygon class="cls-1" points="61.7 55.02 43.27 61.7 40.85 9.97 55.67 2.29 61.7 55.02"/><polygon class="cls-3" points="22.21 51.93 7.01 53.12 11.7 8.69 26.72 7.81 22.21 51.93"/><polygon class="cls-4" points="43.09 57.78 22.21 51.93 26.72 7.81 41.03 13.73 43.09 57.78"/><polygon class="cls-3" points="57.6 52.31 43.09 57.78 41.03 13.73 52.8 8.15 57.6 52.31"/><g class="cls-5"><path class="cls-6" d="M21.67,36a3.51,3.51,0,0,0-.79.47.71.71,0,0,0,.13.09c-1.93,3.47,1.08,4.68,1.08,4.68-1.15,6,1.26,8,1.26,8a9,9,0,0,1,2.95-7.55C27.31,37,23,36.13,21.67,36Z"/><path class="cls-7" d="M20.48,35.52a3.9,3.9,0,0,1-1.76-3c3,0,6.26-4.4,6.26-4.4-2.17-6.94-3.07-1-3.07-1-3.19-3.32.84-5,.84-5a7.44,7.44,0,0,1-3.61-3.77c-.12,1.74-.85,1.66-.85,1.66-5.65-3.09-6.67,1.89-6.67,1.89.9,2.64-1,2.94-1,2.94,1.87.3,2.83-2.11,2.83-2.11,3.85,1.81,1.81,8.3,1.81,8.3,1.5.83,1.92,3.54,1.92,3.54A11.6,11.6,0,0,1,20,35.87,5.07,5.07,0,0,1,20.48,35.52Z"/><path class="cls-8" d="M26.45,16.24s-1.73-1.14-4.44.62C22,16.86,21.28,23.08,26.45,16.24Z"/><path class="cls-9" d="M30.59,17.67C28.37,14.11,24.81,19,24.81,19c1.26,1,1.43,1.92,1.19,2.72-.87,2.94.25,3.84.25,3.84a4,4,0,0,1,3-2.88A11.11,11.11,0,0,1,30.59,17.67Z"/><path class="cls-10" d="M36.66,33.66a.47.47,0,0,1-.61,0A6.2,6.2,0,0,1,34.92,32a.42.42,0,0,1-.06-.28c-1.64-.57-5-1.14-5.45,3.39,0,0,.63,3.11,2.67,1.53,0,0,2.26.39,1.35,4.47,0,0,.36,3.17,2.35,2.88a19.63,19.63,0,0,1,3.07-8.09S37.82,36.82,36.66,33.66Z"/><path class="cls-11" d="M53.11,18.27a27.15,27.15,0,0,1-10.2,1.18,1.38,1.38,0,0,0-1.36-1.78s-2.48,3-1.35,4.62c0,0-.45,2.95-1.08-1.35,0,0-1,2.54-2.44,2,0,0-.38,2.58-1.26.85a.62.62,0,0,0,.88-.51s-2-2-3.25,1.05c0,0-1,.37-.61,1.81,0,0,.7-1.19,1.06.62,0,0,.38-.28.54-2.6,0,0,1-.45.22,1.38,0,0,2.22,0-1.21,1.87,0,0-.19,0-.34-.73a4.55,4.55,0,0,1-1.58,2.29.77.77,0,0,1-.54,1S30.16,31,31.18,31c0,0,.88-2.52,2.55-.54,0,0,.31-.11-.18-1.1A2.23,2.23,0,0,1,34.76,31s.55-.09.63-1.22c0,0,.68-1.44,1.79.26a1.47,1.47,0,0,0-1.85,1,1.17,1.17,0,0,1,1.13.11,1,1,0,0,1-.4.9,3.87,3.87,0,0,0,.69.93.42.42,0,0,1,.08.56c.78,1.25,2.23,2.92,3.24.26,0,0-1.35.72-1.81-1.26a5.38,5.38,0,0,1,4.38,3.9,4.4,4.4,0,0,0,1.26-3s1.18.06,2.62,3c0,0,.63-.06.32-2,0,0,2.25-.85,1-4.59,0,0,1.89,2.44,1.26-.73,0,0,2.08-2.38-.4-4,0,0,.08-1.75,1.57-1.53,0,0,1.49-3.62.77.68a3.14,3.14,0,0,0,1,1.81,4.53,4.53,0,0,0-.31-2.94A10.53,10.53,0,0,0,53.11,18.27Z"/><path class="cls-6" d="M31.87,27.83C32.26,27,31,26,31,26,31.2,28.06,31.49,28.68,31.87,27.83Z"/><path class="cls-6" d="M30.36,28s.63-.09.45-.84C30.81,27.11,30.36,27.15,30.36,28Z"/><path class="cls-6" d="M30.11,23.84s-1.6,0-1,.77S30.11,23.84,30.11,23.84Z"/><path class="cls-12" d="M38.13,42.43a5.33,5.33,0,0,0,.47-2.37S37,41.72,38.13,42.43Z"/><path class="cls-8" d="M48.24,36.58s-1.13,1-.93,1.84S48.51,38.25,48.24,36.58Z"/><path class="cls-12" d="M52.75,39.69c.5-.81-2.71-1.81-2.71-1.81C50.67,38.76,52.3,40.42,52.75,39.69Z"/><path class="cls-6" d="M49.16,39.87c.76-1.21-2.28-.63-2.28-.63S48.87,40.34,49.16,39.87Z"/><path class="cls-13" d="M50.35,40.12a4.07,4.07,0,0,1-2.86,1.8,4.73,4.73,0,0,1,0,2.95s2.28-2.72,3.59,1.21c0,0,1.13.57,1.92-3A8,8,0,0,1,51.74,40S51.42,42.33,50.35,40.12Z"/><path class="cls-13" d="M49.28,31.51s2.55-.9,1.52-3a.87.87,0,0,1,.26-.16c-1.11-1.67-.71.74-.71.74a1.67,1.67,0,0,1,.25-.38A3.26,3.26,0,0,1,49.28,31.51Z"/><path class="cls-13" d="M22.69,23.62s1.88,2.65,2.12-.31c.06-.67-.22-.8-.5-.79A2.85,2.85,0,0,0,22.83,20c-.91.51-.82,1.19-.82,1.19.82.11,1.32,1,1.62,1.91A1.29,1.29,0,0,1,22.69,23.62Z"/><path class="cls-12" d="M31.3,16c.56-1.22-1.2-2.61-1.2-2.61C30.33,16.34,30.75,17.24,31.3,16Z"/><path class="cls-14" d="M29.77,15s-.65.06-.65,1.2C29.12,16.18,30,16.05,29.77,15Z"/></g></svg>