<svg id="Layer_1" data-name="Layer 1" xmlns="http://www.w3.org/2000/svg" viewBox="0 0 64 64"><defs><style>.cls-1{fill:#67c2e7;}.cls-2{fill:#87957a;}.cls-3{fill:#b5c3a6;}.cls-4{fill:#3f4347;}.cls-5{fill:#2590ba;}.cls-6{fill:#ef5b7a;}.cls-7{fill:#eef4d7;}.cls-8{fill:#555c62;}.cls-9{opacity:0.7;}.cls-10{fill:#f4f5f5;}</style></defs><title>sjmdicon-robot</title><path class="cls-1" d="M56.9,13.31a6.5,6.5,0,0,0-2.6-2.1C51,9.59,43,9.93,42.3,5.71c-.89-5.54-5.69.06-6.58.06S34.18,2,32.09,2,29.5,5.77,28.47,5.77s-5.7-5.6-6.59-.06c-.67,4.22-8.71,3.88-12,5.5a6.53,6.53,0,0,0-2.61,2.1.74.74,0,0,0,1.18.87c1.54-1.93,4.7-2.31,7-2.75a29.23,29.23,0,0,0,5.72-1.36c2.53-1,2.41-4.8,3.18-4.8.57,0,2.62,2.94,4.43,2.94,1.53,0,2.51-3.6,3.35-3.6s1.82,3.6,3.36,3.6c1.81,0,3.86-2.94,4.43-2.94.76,0,.65,3.83,3.18,4.8a29.23,29.23,0,0,0,5.72,1.36c2.25.44,5.41.82,6.95,2.75A.73.73,0,0,0,56.9,13.31Z"/><path class="cls-2" d="M52.43,55.48a4.87,4.87,0,0,1-4.86,4.87H16.43a4.87,4.87,0,0,1-4.86-4.87V35.06H52.43Z"/><path class="cls-3" d="M32,11.71c-15,0-20.43,8.3-20.43,23.35V55.48H52.43V35.06C52.43,20,47,11.71,32,11.71Z"/><path class="cls-2" d="M11.57,53.52A2.3,2.3,0,0,1,9.63,51v-6.6a2.29,2.29,0,0,1,1.94-2.53Z"/><path class="cls-2" d="M52.43,41.85a2.29,2.29,0,0,1,1.94,2.53V51a2.3,2.3,0,0,1-1.94,2.54Z"/><polygon class="cls-4" points="7.68 19.47 5.73 19.47 5.73 48.66 7.68 48.66 9.63 48.66 9.63 46.71 7.68 46.71 7.68 19.47"/><polygon class="cls-4" points="56.32 19.47 56.32 46.71 54.38 46.71 54.38 48.66 56.32 48.66 58.27 48.66 58.27 19.47 56.32 19.47"/><circle class="cls-5" cx="57.29" cy="19.47" r="3.89"/><circle class="cls-6" cx="6.71" cy="19.47" r="3.89"/><circle class="cls-7" cx="21.79" cy="30.68" r="7.78" transform="translate(-12.46 46.27) rotate(-79.1)"/><circle class="cls-8" cx="21.79" cy="30.68" r="5.84"/><circle class="cls-6" cx="21.79" cy="30.68" r="2.22"/><circle class="cls-7" cx="42.21" cy="30.68" r="7.78" transform="translate(4.11 66.33) rotate(-79.1)"/><circle class="cls-8" cx="42.21" cy="30.68" r="5.84" transform="translate(4.11 66.33) rotate(-79.1)"/><path class="cls-6" d="M42.21,28.45A2.23,2.23,0,1,1,40,30.68,2.23,2.23,0,0,1,42.21,28.45Z"/><path class="cls-7" d="M20.1,52.65c-7.16,0-7.16-12.65,0-12.65H43.9c7.16,0,7.16,12.65,0,12.65Z"/><path class="cls-2" d="M20.8,51.19c-5.82,0-5.82-9.73,0-9.73H43.2c5.82,0,5.82,9.73,0,9.73Z"/><g class="cls-9"><path class="cls-4" d="M21.49,49.32a1,1,0,0,1-1.95,0v-6a1,1,0,0,1,1.95,0Z"/><path class="cls-4" d="M26.08,49.32a1,1,0,0,1-1.94,0v-6a1,1,0,0,1,1.94,0Z"/><path class="cls-4" d="M30.68,49.32a1,1,0,0,1-1.95,0v-6a1,1,0,0,1,1.95,0Z"/><path class="cls-4" d="M35.27,49.32a1,1,0,0,1-2,0v-6a1,1,0,0,1,2,0Z"/><path class="cls-4" d="M39.86,49.32a1,1,0,0,1-1.94,0v-6a1,1,0,0,1,1.94,0Z"/><path class="cls-4" d="M44.46,49.32a1,1,0,0,1-2,0v-6a1,1,0,0,1,2,0Z"/></g><circle class="cls-10" cx="32" cy="36.01" r="1.95"/><rect class="cls-8" x="31.63" y="34.06" width="0.74" height="3.89" transform="translate(-16.09 33.17) rotate(-45)"/></svg>