<svg xmlns="http://www.w3.org/2000/svg" viewBox="0 0 40.6 60.8"><path fill="#626566" d="M16.3 56.8c0 2.2 1.8 4 4 4s4-1.8 4-4h-8z"/><path fill="#F3F602" d="M13.1 46.6h14.4c.8-4.3 3.5-8.6 6.4-13 3.3-5.2 6.7-10.6 6.7-15.8C40.6 8 31.5 0 20.3 0S0 8 0 17.8C0 23 3.4 28.4 6.7 33.5c2.9 4.5 5.6 8.8 6.4 13.1z"/><path fill="#666416" d="M12.8 29.2c0-.2.2-.3.3-.3h.2l.2.1c.3.4.6 1 .7 1.5l.2.6a2 2 0 0 1-1-.5c-.4-.3-.6-.9-.6-1.4zm6.9-3.5c.1-.2.3-.4.6-.4s.5.2.6.4c.2.3.2.8 0 1.1l-.6.9-.6-.9a1 1 0 0 1 0-1.1zm6.6 4.7c.1-.5.4-1 .7-1.4l.2-.2h.2l.3.4c0 .5-.1 1-.5 1.3-.3.3-.7.4-1.1.5l.2-.6zM14.6 32l.4 1.8.8 3.2 2.4 9.6h.6a606 606 0 0 0-2.9-13l-.3-1.6a9.5 9.5 0 0 0 4.6-3 9.1 9.1 0 0 0 4.7 3l-.4 1.6-.7 3.3c-1 3.8-1.6 7.2-2.2 9.7h.6l2.4-9.6.8-3.2.4-1.8c.8 0 1.5-.3 2.1-.8.6-.5.8-1.3.7-2.1-.1-.5-.4-.9-.9-1-.3-.1-.5-.1-.8 0l-.6.3a4 4 0 0 0-1 1.8l-.3.9s-.8 0-2.7-1.2c-.6-.4-1.2-.9-1.6-1.5l1-1.2.2-.9c0-.3 0-.7-.2-1-.2-.4-.5-.6-.9-.8l-.6-.1h-.6a2 2 0 0 0-.9.9c-.2.3-.2.7-.2 1l.3.8c.2.5.5.9.9 1.3a8 8 0 0 1-1.7 1.5c-1.8 1.3-2.7 1.2-2.7 1.2l-.2-.9a4 4 0 0 0-1-1.8l-.6-.4h-.9c-.5.2-.8.5-.9 1-.1.8.2 1.7.8 2.2.6.5 1.3.8 2 .8h.1z"/><path fill="#93979A" d="M13.1 48.6h14.5v1.9H13.1v-1.9zm1 3.8h12.5v1.9H14.1v-1.9z"/><path fill="#626566" d="M14.1 50.5h12.5v1.9H14.1v-1.9z"/><path fill="#93979A" d="M27.6 48.6l-13.5 3.8v1.8l13.5-3.7v-1.9zm-12.5 7.5h10.5V58H15.1v-1.9z"/><path fill="#626566" d="M15.1 54.2h10.5v1.9H15.1v-1.9z"/><path fill="#93979A" d="M26.6 52.4l-11.5 3.7v1.8l11.5-3.7v-1.8z"/></svg>