<svg id="Layer_1" data-name="Layer 1" xmlns="http://www.w3.org/2000/svg" viewBox="0 0 64 64"><defs><style>.cls-1{fill:#b89272;}.cls-2{fill:#92a2aa;}.cls-3{fill:#ef5b7a;}.cls-4{fill:#d9e3e8;}.cls-5{fill:#333;}.cls-6{fill:#fff;}</style></defs><title>sjmdicon-calendar</title><path class="cls-1" d="M57.62,20.07C48.05,14.21,33.06,5.5,31,5.5S14.6,14.21,5.46,20.06L5,19.22C7.34,17.71,28,4.51,31,4.51s24.62,13.2,27.08,14.7Z"/><path class="cls-2" d="M61.45,56.58a2.8,2.8,0,0,1-2.68,2.91H7.23a2.8,2.8,0,0,1-2.68-2.91v-35a2.8,2.8,0,0,1,2.68-2.9H58.77a2.8,2.8,0,0,1,2.68,2.9Z"/><path class="cls-3" d="M59.45,21.56a2.8,2.8,0,0,0-2.68-2.9H5.23a2.8,2.8,0,0,0-2.68,2.9v9.29h56.9Z"/><path class="cls-4" d="M2.55,30.85V56.58a2.8,2.8,0,0,0,2.68,2.91H56.77a2.8,2.8,0,0,0,2.68-2.91V30.85Z"/><rect class="cls-2" x="5.02" y="33.19" width="5.85" height="2.18"/><rect class="cls-2" x="12.7" y="33.19" width="5.85" height="2.18"/><rect class="cls-2" x="20.39" y="33.19" width="5.86" height="2.18"/><rect class="cls-2" x="28.07" y="33.19" width="5.85" height="2.18"/><rect class="cls-2" x="35.75" y="33.19" width="5.85" height="2.18"/><rect class="cls-2" x="43.44" y="33.19" width="5.85" height="2.18"/><rect class="cls-2" x="51.12" y="33.19" width="5.85" height="2.18"/><rect class="cls-2" x="28.07" y="37.54" width="5.85" height="2.18"/><rect class="cls-2" x="35.75" y="37.54" width="5.85" height="2.18"/><rect class="cls-2" x="43.44" y="37.54" width="5.85" height="2.18"/><rect class="cls-2" x="51.12" y="37.54" width="5.85" height="2.18"/><rect class="cls-2" x="5.02" y="41.9" width="5.85" height="2.18"/><rect class="cls-2" x="12.7" y="41.9" width="5.85" height="2.18"/><rect class="cls-2" x="20.39" y="41.9" width="5.86" height="2.18"/><rect class="cls-2" x="28.07" y="41.9" width="5.85" height="2.18"/><rect class="cls-2" x="35.75" y="41.9" width="5.85" height="2.18"/><rect class="cls-2" x="43.44" y="41.9" width="5.85" height="2.18"/><rect class="cls-2" x="51.12" y="41.9" width="5.85" height="2.18"/><rect class="cls-2" x="5.02" y="46.25" width="5.85" height="2.18"/><rect class="cls-2" x="12.7" y="46.25" width="5.85" height="2.18"/><rect class="cls-2" x="20.39" y="46.25" width="5.86" height="2.18"/><rect class="cls-2" x="28.07" y="46.25" width="5.85" height="2.18"/><rect class="cls-2" x="35.75" y="46.25" width="5.85" height="2.18"/><rect class="cls-2" x="43.44" y="46.25" width="5.85" height="2.18"/><rect class="cls-2" x="51.12" y="46.25" width="5.85" height="2.18"/><rect class="cls-2" x="5.02" y="50.61" width="5.85" height="2.18"/><rect class="cls-2" x="12.7" y="50.61" width="5.85" height="2.18"/><rect class="cls-2" x="20.39" y="50.61" width="5.86" height="2.18"/><rect class="cls-2" x="28.07" y="50.61" width="5.85" height="2.18"/><rect class="cls-2" x="35.75" y="50.61" width="5.85" height="2.18"/><rect class="cls-2" x="43.44" y="50.61" width="5.85" height="2.18"/><rect class="cls-2" x="51.12" y="50.61" width="5.85" height="2.18"/><rect class="cls-2" x="5.02" y="54.97" width="5.85" height="2.18"/><rect class="cls-2" x="12.7" y="54.97" width="5.85" height="2.18"/><rect class="cls-2" x="20.39" y="54.97" width="5.86" height="2.18"/><rect class="cls-2" x="28.07" y="54.97" width="5.85" height="2.18"/><rect class="cls-2" x="35.75" y="54.97" width="5.85" height="2.18"/><rect class="cls-2" x="43.44" y="54.97" width="5.85" height="2.18"/><ellipse class="cls-5" cx="31.21" cy="6.97" rx="1.79" ry="1.91"/><ellipse class="cls-2" cx="31" cy="6.97" rx="1.79" ry="1.91"/><path class="cls-6" d="M19.73,25.91v.18a3.46,3.46,0,0,0,.18,1.25.68.68,0,0,0,.69.36.66.66,0,0,0,.69-.4,2.11,2.11,0,0,0,.1-.79V21.16H23v5.33A3.13,3.13,0,0,1,22.64,28a2.08,2.08,0,0,1-2,1,2.1,2.1,0,0,1-1.93-.78,4,4,0,0,1-.49-2.13v-.18Z"/><path class="cls-6" d="M24.64,21.16h1.6v4.7A2.69,2.69,0,0,0,26.43,27a1.21,1.21,0,0,0,1.24.65A1.21,1.21,0,0,0,28.91,27a2.54,2.54,0,0,0,.19-1.15v-4.7h1.6v4.7a4,4,0,0,1-.37,1.91A2.78,2.78,0,0,1,27.67,29,2.79,2.79,0,0,1,25,27.77a4.15,4.15,0,0,1-.37-1.91v-4.7Z"/><polygon class="cls-6" points="32.22 21.16 33.8 21.16 33.8 27.44 37.57 27.44 37.57 28.82 32.22 28.82 32.22 21.16 32.22 21.16"/><polygon class="cls-6" points="41.97 21.16 43.76 21.16 41.23 25.95 41.23 28.82 39.66 28.82 39.66 25.95 37.04 21.16 38.91 21.16 40.47 24.49 41.97 21.16"/></svg>