<svg id="Layer_1" data-name="Layer 1" xmlns="http://www.w3.org/2000/svg" viewBox="0 0 64 64"><defs><style>.cls-1{fill:#46474a;}.cls-2{fill:#2590ba;}.cls-3{fill:#39a9ce;}</style></defs><title>sjmdicon-headphones</title><path class="cls-1" d="M47.52,45.19C40.87,57.3,41,58.29,37.9,56.53s-4.27-3.37,2.39-15.48S48.9,29.14,52,30.9,54.17,33.09,47.52,45.19Z"/><path class="cls-2" d="M53.78,48.77c-4.23,7.71-9.46,11.43-11.93,10C38.77,57,40.35,57,47,44.89s5.85-13.49,8.93-11.73C58.4,34.57,58,41.07,53.78,48.77Z"/><path class="cls-1" d="M16.48,45.19C23.13,57.3,23,58.29,26.1,56.53s4.27-3.37-2.39-15.48S15.1,29.14,12,30.9,9.83,33.09,16.48,45.19Z"/><path class="cls-2" d="M10.22,48.77c4.23,7.71,9.46,11.43,11.93,10C25.23,57,23.65,57,17,44.89S11.15,31.4,8.07,33.16C5.6,34.57,6,41.07,10.22,48.77Z"/><path class="cls-3" d="M11.2,57.82s5.43,1.42,5.86,0c2.5-8.18-11.44-13-11.44-22.19C5.62,20.76,17.43,8.71,32,8.71S58.37,20.76,58.37,35.63c0,9.21-13.93,14-11.43,22.19.43,1.42,5.85,0,5.85,0a30.9,30.9,0,0,0,9.3-22.19c0-17-13.47-30.71-30.09-30.71S1.91,18.67,1.91,35.63A30.93,30.93,0,0,0,11.2,57.82Z"/><path class="cls-1" d="M14.81,17.62c3.48-.67,8-5.75,17.19-5.75S45.71,17,49.19,17.62c1.38.27,3.8-1.89,3.8-1.89A26.05,26.05,0,0,0,32,6.18a26.05,26.05,0,0,0-21,9.55S13.43,17.89,14.81,17.62Z"/></svg>