<svg id="Layer_1" data-name="Layer 1" xmlns="http://www.w3.org/2000/svg" viewBox="0 0 64 64"><defs><style>.cls-1{fill:#2590ba;}.cls-2{fill:#86c67f;}</style></defs><title>sjmdicon-globe</title><path class="cls-1" d="M61.71,32a29.71,29.71,0,1,1-36-29h.83l.61-.29,1.47-.2,1,0,.72-.17.42,0L32,2.48l.77-.18.44,0,1.63.41,1.93,0,.68.11,7,4.49,7.68,2.93A29.6,29.6,0,0,1,61.71,32Z"/><path class="cls-2" d="M33.44,11.67c1.94.62,1.86-.6,3.08.82.7.82,2,2.31,3.48,2.68.21.05.68-.4.68-.76s-1-1.12-1.64-1.28.24-1.28-.56-1.62a4.77,4.77,0,0,1-2-2.62c-.32-1-1.72-.16-2.2-.36s-1.08-.08-1.6.68A2.13,2.13,0,0,0,33.44,11.67Z"/><path class="cls-2" d="M43.92,39.65c0-.42-3.83-2.5-4.29-2.53-.76,0-1.8-.42-2.49,0a2.13,2.13,0,0,0-.74.69c-.13.25-.87-.21-1.16-.06-.69.37-1.08-.82-.88-1.28.48-1.11-1.22-.41-1.39-.71.21.36-.06-3.18-.65-1.18-.45,1.51-2.21-.22-2-1.32.33-1.7,2.89-2,3.45-1.65.28.16,1.32,1.66,1.45,1.62.29-.09-.16-1.77-.22-2-.2-.82,1.37-1.1,1.49-2s.58-.47,1.08-.86c.71-.57.15-1.62,1.07-2.16.31-.19,1.47-.32,1.63-.65s-1-1.11,0-1.35,1.75.17,2-1.09-1-1.39-1.42-2.27c-.12-.27-.26-1.79-.8-1.51s-1.07,1.19-1.62.19c-1-1.8-3.4-2.58-2.26.25.58,1.47-1.61,5.92-1.92,1.8-.11-1.43-4.39-1.86-2.95-3.44s3.45-1.66,4-4.13c.75-3.43-1.62-.51-2.84-1.18-1.8-1-.27-.45-1.21.83-.35.49-1.52-.31-2-.23s-1.71,1.13-2,.47c-.61-1.21-4.85-2-6-1.52-2.4.89-3.23-.32-5.62-.79-.83-.17-4.9-.28-4.64,1.13a13.59,13.59,0,0,0,.67,1.51c.25.78-.91.18-1.18.37a18.88,18.88,0,0,0,1.49,1.19c.39.4-1.5.88-1.68,1.55-.38,1.36,2.59,1,2,2.59-.16.5-1.86,1.31-2,3,0,.32,2.12-2.06,3.5-1.56s1.12-2.88,2.64-2.88c2.84,0,3.38,2.77,4.88,4.62.7.86,1.26,1.22,1.38,2.35a14.1,14.1,0,0,0,.27,3.32c.37.95,1.11,1,1.59,1.79a13.23,13.23,0,0,0,1.7,2.58C27.3,34.28,29.24,36,31,35.77a5.93,5.93,0,0,1,2,.94,5.92,5.92,0,0,1,1,1.34c.31.42,1.32.16,1.76.36s-1,3.15-.5,3.93.58,1.83,1.45,2.51,1.06.69,1.16,1.8a15.61,15.61,0,0,1-.8,5.32c-.22.87.23,1.83-.11,2.65a4.14,4.14,0,0,0-.33,3.07c.64,2,4.23,2.32,2.09.58-.9-.74,1-2.53.4-2.7-1-.42.18-.8.32-1.24.26-.87,4.27-4.48,4.56-5.08s.09-1,.5-1.46,1.07-.31,1.58-.65c1.06-.71.68-1.9,1.11-2.88.87-1.94,1.24-1.17,0-2.69C46.88,41,44,41.22,43.92,39.65Z"/><path class="cls-2" d="M22.51,10.29c.73.76,1.45-.4,1.57,0s.14,1.16,1,1.22-.81.62-.25.86,1.76,1,2.2.68,1-.56,1.16-.32,1.4,0,1.06-.44S28,10.94,28,10.4s1.08-2-.08-1.83A1.06,1.06,0,0,0,27,9.73c0,.4-1.08-.6-1.28-.58s-1-1.22-1.24-1.22-2.16-.6-2,0S21.78,9.53,22.51,10.29Z"/><path class="cls-2" d="M39.28,16c-.56-.32-1.64-1.8-2.12-1.32s.12,1.56.52,2,2.08,1.52,1.84,1S40.4,16.65,39.28,16Z"/><path class="cls-2" d="M23.61,5.84c.3,0,.75,1,1.18,1.09s.64.61.8.73A10.66,10.66,0,0,0,28,6.93c.5-.19-.53-1.15-.88-1.84s-.08,1.15-.59.85-.42-.72-1-.72-.18-1.25-1-1S23.32,5.86,23.61,5.84Z"/><path class="cls-2" d="M30,8.24c-.52.1-.43.45-.72.74a.75.75,0,0,0,0,1c.27.35.69,1,1,.38s0-1.07,0-1.44S30.3,8.18,30,8.24Z"/><path class="cls-2" d="M31.11,10.1c.13.32.37-.55.89-1s-.25-1.6-.73-1A3,3,0,0,0,31.11,10.1Z"/><path class="cls-2" d="M31,10.5c-.28.4-.5,1.44,0,1.52a.59.59,0,0,0,.58-.88C31.37,10.74,31.13,10.34,31,10.5Z"/><path class="cls-2" d="M33,3.76c-.48.21.69.61-.11.82s-.83.89-1.52.32-1.45.19-.92.54,1.4,1.17,1.37,1.62.83.67,1.63.62,1.76.19,1.79-.16.12-.49,0-.75S34.82,6,34,6.34s-1.36.16-1.48-.24,1.61-1.17,2.38-.63,1.5-.3.94-.67S35.64,4,36,4s.53-.74.74-1.29a29.8,29.8,0,0,0-3.56-.36C33.22,3.07,33.5,3.55,33,3.76Z"/><path class="cls-2" d="M25.93,3.09c.54.23,1.41,0,1.25-.41-.49.08-1,.17-1.44.28A.57.57,0,0,0,25.93,3.09Z"/><path class="cls-2" d="M26.26,3.52c-.75-.39-.71.56-.36.93S27.24,4,26.26,3.52Z"/><path class="cls-2" d="M30.83,2.32a1.33,1.33,0,0,1,1,.86c.1.34.91-.4.92-.88H32Q31.42,2.29,30.83,2.32Z"/><path class="cls-2" d="M29.26,3.43c-.34.46-.05,1,.35.56s.08-1.65.4-1.14.91,1.31,1.31,1.35.05-.47,0-.9-1-.82-.91-1c-.6,0-1.18.08-1.76.14C29.07,2.75,29.5,3.09,29.26,3.43Z"/><path class="cls-2" d="M31,7.44c.47.18,0-1,0-1C30.52,6.77,30.54,7.25,31,7.44Z"/><path class="cls-2" d="M29.32,6.69a.46.46,0,0,0,.85,0c.27-.43,0-2-.38-1.49s-.82.26-1.59,0S29.24,6.37,29.32,6.69Z"/><path class="cls-2" d="M34.54,34c.66-.08,1,.72,1.8.68s1.86,1.09,2.5.42-2.28-1-3.2-1.46S33.88,34,34.54,34Z"/><path class="cls-2" d="M37.8,3.89c.92.44.76.43.2.85s-.36,1.36.88,1.3,2-1.3,2.56.44.16,3.63.88,4.16.12.89,0,1.39.2.86.76.7.4.88,0,1.32-.87,1.28.36,2.8a19.15,19.15,0,0,0,1.8,1.84c.4.52.72-.19.84-.8s-.28-2.71,1.12-2.72a2,2,0,0,0,2-1.48c.16-.36,1.28-.32,1.88-.84a2.77,2.77,0,0,0,1.14-2.65A29.69,29.69,0,0,0,37.45,2.79C37.34,3.21,37.35,3.67,37.8,3.89Z"/></svg>