<svg id="Layer_1" data-name="Layer 1" xmlns="http://www.w3.org/2000/svg" viewBox="0 0 64 64"><defs><style>.cls-1{fill:#ef5b7a;}.cls-2{fill:#f2f2f2;}.cls-3{fill:#c94747;}.cls-4{fill:#d0d0d0;}.cls-5{fill:#fff;}.cls-6{fill:#3f4347;}.cls-7{fill:#d34668;}.cls-8{fill:#93979a;}.cls-9{fill:#f9c5cd;}</style></defs><title>sjmdicon-tent</title><polygon class="cls-1" points="55.81 35.91 32 35.91 8.19 35.91 2.43 61.57 32 61.57 61.57 61.57 55.81 35.91"/><polygon class="cls-2" points="10.49 61.57 23.72 61.57 25.44 35.91 13.94 35.91 10.49 61.57"/><path class="cls-3" d="M2.43,35.91C2.43,38.18,5,40,8.19,40s5.75-1.84,5.75-4.11Z"/><path class="cls-4" d="M13.94,35.91c0,2.27,2.57,4.11,5.75,4.11s5.75-1.84,5.75-4.11Z"/><polygon class="cls-2" points="53.51 61.57 40.29 61.57 38.56 35.91 50.06 35.91 53.51 61.57"/><path class="cls-3" d="M61.57,35.91C61.57,38.18,59,40,55.81,40s-5.75-1.84-5.75-4.11Z"/><path class="cls-4" d="M50.06,35.91c0,2.27-2.57,4.11-5.75,4.11s-5.75-1.84-5.75-4.11Z"/><path class="cls-1" d="M32,10.32C30.79,20.61,18,35.91,2.43,35.91H61.57C46,35.91,33.21,20.61,32,10.32Z"/><path class="cls-5" d="M13.94,35.91H25.42S32,28.16,32,10.32C32,10.32,25.42,35.91,13.94,35.91Z"/><path class="cls-5" d="M32,10.32c0,17.84,6.59,25.59,6.59,25.59H50.06C38.59,35.91,32,10.32,32,10.32Z"/><path class="cls-3" d="M32,35.91H25.44C25.44,38.18,28.82,40,32,40s6.56-1.84,6.56-4.11Z"/><polygon class="cls-6" points="31.99 39.97 21.5 61.57 42.5 61.57 31.99 39.97"/><path class="cls-7" d="M21.52,61.57s-2.41,0-4.06-4.87c0,0,4.07-.54,14.52-16.68C32,40,26.82,61.57,21.52,61.57Z"/><path class="cls-7" d="M42.48,61.57s2.41,0,4.06-4.87c0,0-4.07-.54-14.52-16.68C32,40,37.18,61.57,42.48,61.57Z"/><rect class="cls-8" x="31.23" y="3.37" width="1.57" height="9.57"/><rect class="cls-4" x="31.62" y="3.37" width="0.79" height="9.57"/><ellipse class="cls-1" cx="32" cy="3.78" rx="1.51" ry="1.35"/><path class="cls-3" d="M32,4.27a1.49,1.49,0,0,1-1.43-.92,1.26,1.26,0,0,0-.08.43,1.52,1.52,0,0,0,3,0,1.26,1.26,0,0,0-.08-.43A1.49,1.49,0,0,1,32,4.27Z"/><path class="cls-9" d="M32.4,3a.38.38,0,0,1,.4.36.4.4,0,0,1-.8,0A.38.38,0,0,1,32.4,3Z"/><path class="cls-1" d="M32.8,5.47v4c2.85-3.08,5.69,1.07,8.53-2C38.49,9.22,35.65,3.73,32.8,5.47Z"/></svg>