<svg id="Layer_1" data-name="Layer 1" xmlns="http://www.w3.org/2000/svg" viewBox="0 0 64 64"><defs><style>.cls-1{fill:#333;}.cls-2{fill:#6e7375;}.cls-3{fill:#93979a;}.cls-4{fill:#5c646c;}.cls-5{fill:#cece05;}</style></defs><title>sjmdicon-volume</title><path class="cls-1" d="M14,4.52v55c0,3.36,6,3.36,6,0v-55C20,1.16,14,1.16,14,4.52Z"/><path class="cls-2" d="M6.58,42H27.41a5,5,0,0,0,0-10H6.58a5,5,0,0,0,0,10Z"/><path class="cls-3" d="M6.88,39.63H27.12c2.43,0,4.46-1.73,4.46-3.81S29.55,32,27.12,32H6.88c-2.43,0-4.46,1.74-4.46,3.82S4.45,39.63,6.88,39.63Z"/><path class="cls-4" d="M59,10H39c-4,0-4-6,0-6H59C63,4,63,10,59,10Z"/><path class="cls-4" d="M57,20H39c-4,0-4-6,0-6H57C61,14,61,20,57,20Z"/><path class="cls-4" d="M55,30H39c-4,0-4-6,0-6H55C59,24,59,30,55,30Z"/><path class="cls-5" d="M53,40H39c-4,0-4-6,0-6H53C57,34,57,40,53,40Z"/><path class="cls-5" d="M51,50H39c-4,0-4-6,0-6H51C55,44,55,50,51,50Z"/><path class="cls-5" d="M49,60H39c-4,0-4-6,0-6H49C53,54,53,60,49,60Z"/></svg>