<svg id="Layer_1" data-name="Layer 1" xmlns="http://www.w3.org/2000/svg" viewBox="0 0 64 64"><defs><style>.cls-1{fill:#626566;}.cls-2{fill:#f3f602;}.cls-3{fill:#666416;}.cls-4{fill:#93979a;}</style></defs><title>sjmdicon-lightbulb</title><path class="cls-1" d="M27.94,58.37a4.06,4.06,0,0,0,8.12,0Z"/><path class="cls-2" d="M24.84,48.23H39.16c.85-4.37,3.57-8.63,6.41-13.08,3.3-5.18,6.72-10.54,6.72-15.74,0-9.84-9.1-17.84-20.29-17.84s-20.29,8-20.29,17.84c0,5.2,3.42,10.56,6.72,15.74C21.27,39.6,24,43.86,24.84,48.23Z"/><path class="cls-3" d="M24.53,30.83c0-.23.15-.34.26-.37a.41.41,0,0,1,.17,0,.52.52,0,0,1,.19.15,4.23,4.23,0,0,1,.77,1.46c.08.21.14.42.2.62a2.16,2.16,0,0,1-1.09-.5A1.57,1.57,0,0,1,24.53,30.83Zm6.86-3.55a.75.75,0,0,1,.61-.39.76.76,0,0,1,.61.39,1.24,1.24,0,0,1-.06,1.16,4.57,4.57,0,0,1-.55.85,4.57,4.57,0,0,1-.55-.85A1.24,1.24,0,0,1,31.39,27.28Zm6.69,4.77a4.39,4.39,0,0,1,.76-1.46.69.69,0,0,1,.21-.15.37.37,0,0,1,.16,0c.11,0,.22.14.26.37a1.57,1.57,0,0,1-.5,1.34,2.16,2.16,0,0,1-1.09.5C37.94,32.47,38,32.26,38.08,32.05ZM26.37,33.62c.15.6.28,1.21.43,1.8q.4,1.65.78,3.21c.94,3.81,1.76,7.09,2.41,9.6h.6c-.53-2.55-1.26-5.88-2.14-9.77-.23-1-.48-2.11-.73-3.22-.13-.54-.24-1.09-.37-1.66A9.16,9.16,0,0,0,32,30.65a9.16,9.16,0,0,0,4.65,2.93c-.12.57-.24,1.12-.37,1.66-.25,1.11-.5,2.19-.73,3.22-.88,3.89-1.6,7.22-2.14,9.77H34c.66-2.51,1.48-5.79,2.41-9.6q.38-1.56.78-3.21c.15-.59.29-1.2.43-1.8a3.32,3.32,0,0,0,2.08-.82,2.39,2.39,0,0,0,.75-2.13,1.33,1.33,0,0,0-.91-1.06,1.48,1.48,0,0,0-.84,0,1.7,1.7,0,0,0-.61.4,5,5,0,0,0-1,1.8c-.1.3-.19.59-.27.89,0,0-.86.07-2.7-1.17A6.51,6.51,0,0,1,32.55,30a5.82,5.82,0,0,0,.87-1.22,2.68,2.68,0,0,0,.26-.87,1.66,1.66,0,0,0-.2-1,1.82,1.82,0,0,0-.88-.77A2,2,0,0,0,32,26a1.66,1.66,0,0,0-.59.09,1.78,1.78,0,0,0-.88.77,1.6,1.6,0,0,0-.21,1,2.68,2.68,0,0,0,.27.87A5.82,5.82,0,0,0,31.46,30a6.71,6.71,0,0,1-1.62,1.52c-1.85,1.24-2.71,1.17-2.71,1.17-.08-.3-.16-.59-.27-.89a4.8,4.8,0,0,0-1-1.8,1.57,1.57,0,0,0-.6-.4,1.52,1.52,0,0,0-.85,0,1.35,1.35,0,0,0-.91,1.05,2.41,2.41,0,0,0,.76,2.14A3.28,3.28,0,0,0,26.37,33.62Z"/><rect class="cls-4" x="24.75" y="50.22" width="14.54" height="1.87"/><rect class="cls-4" x="25.76" y="53.95" width="12.52" height="1.87"/><rect class="cls-1" x="25.76" y="52.08" width="12.52" height="1.87"/><polygon class="cls-4" points="39.29 50.22 25.76 53.95 25.76 55.82 39.29 52.08 39.29 50.22"/><rect class="cls-4" x="26.78" y="57.68" width="10.49" height="1.87"/><rect class="cls-1" x="26.78" y="55.82" width="10.49" height="1.87"/><polygon class="cls-4" points="38.28 53.95 26.78 57.68 26.78 59.55 38.28 55.82 38.28 53.95"/></svg>