<svg id="Layer_1" data-name="Layer 1" xmlns="http://www.w3.org/2000/svg" viewBox="0 0 64 64"><defs><style>.cls-1{fill:#3f4347;}.cls-2{fill:#b08fc2;}</style></defs><title>sjmdicon-tv</title><path class="cls-1" d="M17.33,61.35h-11c0-2.54,2.46-4.59,5.5-4.59S17.33,58.81,17.33,61.35Z"/><path class="cls-1" d="M57.68,61.35h-11c0-2.54,2.47-4.59,5.51-4.59S57.68,58.81,57.68,61.35Z"/><rect class="cls-1" x="26.56" y="0.81" width="0.92" height="22.01" transform="translate(-0.44 22.56) rotate(-44.98)"/><circle class="cls-1" cx="19.24" cy="4.03" r="1.38"/><rect class="cls-1" x="25.97" y="11.35" width="22.01" height="0.92" transform="translate(2.48 29.61) rotate(-45)"/><circle class="cls-1" cx="44.76" cy="4.03" r="1.38"/><ellipse class="cls-1" cx="32" cy="15.49" rx="7.8" ry="4.59"/><path class="cls-2" d="M58.51,56.6c-5,6.42-46.42,6.25-52.5,0C1.53,52,1.53,24.83,6,20.24c6.08-6.24,47.45-6.42,52.5,0C62.29,25,62.29,51.8,58.51,56.6Z"/><path class="cls-1" d="M49.14,52.23c-3.8,4.88-34.82,4.75-39.39,0C6.4,48.74,6.4,28.09,9.75,24.6c4.57-4.74,35.59-4.88,39.39,0C52,28.25,52,48.59,49.14,52.23Z"/><circle class="cls-1" cx="55.84" cy="29.25" r="2.75" transform="translate(-6.94 23.6) rotate(-22.5)"/><path class="cls-1" d="M55.84,34.75a2.75,2.75,0,1,1-2.75,2.75A2.76,2.76,0,0,1,55.84,34.75Z"/></svg>