<svg id="Layer_1" data-name="Layer 1" xmlns="http://www.w3.org/2000/svg" viewBox="0 0 64 64"><defs><style>.cls-1{fill:#67c2e7;}.cls-2{fill:#333;}.cls-3{fill:#b0bcc5;}.cls-4{fill:#ef5b7a;}.cls-5{fill:#b7294b;}.cls-6{fill:#5a0b1a;}.cls-7{fill:#4b4d4f;}.cls-8{fill:#898a90;}.cls-9{fill:#fff;}</style></defs><title>sjmdicon-megaphone</title><path class="cls-1" d="M51.88,17c2,4.86,2.5,10,2.59,15a40.25,40.25,0,0,1-2.59,15c-.4-5-.18-10-.15-15S51.52,22,51.88,17Z"/><path class="cls-1" d="M55.68,9.44c2.43,7.38,3.09,15,3.21,22.57-.12,7.56-.78,15.17-3.21,22.55,0-7.38.43-14.76.46-22.14C56.17,24.75,55.72,17.1,55.68,9.44Z"/><polygon class="cls-2" points="19.63 50.31 12.38 50.31 25.39 38.16 32.63 38.16 19.63 50.31"/><path class="cls-3" d="M10.77,25.87c-1.41.12-2.7.18-3.81.18a12.66,12.66,0,0,0-1.85,6A12.61,12.61,0,0,0,7,38c1.11,0,2.4.06,3.81.18A15,15,0,0,1,9.22,32,15,15,0,0,1,10.77,25.87Z"/><path class="cls-4" d="M41.18,7.78S26.86,24,14.67,25.46A17.17,17.17,0,0,0,13.15,32a17,17,0,0,0,1.53,6.55C26.86,40.07,41.16,56.2,41.16,56.2Z"/><path class="cls-2" d="M14.67,25.46c-1.37.17-2.68.31-3.89.41A14.86,14.86,0,0,0,9.22,32a15,15,0,0,0,1.56,6.14c1.22.1,2.52.24,3.9.41A17,17,0,0,1,13.15,32,17.17,17.17,0,0,1,14.67,25.46Z"/><ellipse class="cls-5" cx="42.65" cy="31.99" rx="5.63" ry="25.08"/><path class="cls-6" d="M42.65,57.09C39.54,57.09,37,45.86,37,32c4.76-3.56,11.07,4.36,11.07,4.36C38.24,41.76,42.65,57.09,42.65,57.09Z"/><path class="cls-2" d="M37.24,25.28S37,27.64,37,32s.22,6.71.22,6.71l11-2.36v-8.7Z"/><path class="cls-7" d="M37.11,27.4S37,29,37,32s.09,4.59.09,4.59L48.28,35V29Z"/><path class="cls-4" d="M48.28,27.64c.78,0,1.41,1.95,1.41,4.35s-.63,4.35-1.41,4.35-1.41-2-1.41-4.35S47.5,27.64,48.28,27.64Z"/><rect class="cls-8" x="12.38" y="28.62" width="7.24" height="21.69"/><path class="cls-9" d="M16,30.76a1.79,1.79,0,0,1,0,3.53,1.79,1.79,0,0,1,0-3.53Z"/></svg>