<svg id="Layer_1" data-name="Layer 1" xmlns="http://www.w3.org/2000/svg" viewBox="0 0 64 64"><defs><style>.cls-1{fill:#93979a;}.cls-2{fill:#d0d0d0;}.cls-3{fill:#fff;}</style></defs><title>sjmdicon-keyboard</title><path class="cls-1" d="M33,32H32c0-14.88-6-14.88-12.29-14.88-6.56,0-13.35,0-13.35-15.94H7.39c0,14.88,6,14.88,12.28,14.88C26.24,16.06,33,16.06,33,32Z"/><path class="cls-2" d="M62.82,59.74a3,3,0,0,1-2.89,3.08H4.07a3,3,0,0,1-2.89-3.08V35.08A3,3,0,0,1,4.07,32H59.93a3,3,0,0,1,2.89,3.08Z"/><path class="cls-3" d="M7.35,41.25a1,1,0,0,1-1,1H4.26a1,1,0,0,1-1-1V39.19a1,1,0,0,1,1-1H6.32a1,1,0,0,1,1,1Z"/><path class="cls-3" d="M13.51,41.25a1,1,0,0,1-1,1H10.43a1,1,0,0,1-1-1V39.19a1,1,0,0,1,1-1h2.05a1,1,0,0,1,1,1v2.06Z"/><path class="cls-3" d="M19.67,41.25a1,1,0,0,1-1,1H16.59a1,1,0,0,1-1-1V39.19a1,1,0,0,1,1-1h2.06a1,1,0,0,1,1,1v2.06Z"/><path class="cls-3" d="M25.84,41.25a1,1,0,0,1-1,1h-2a1,1,0,0,1-1-1V39.19a1,1,0,0,1,1-1h2a1,1,0,0,1,1,1Z"/><path class="cls-3" d="M32,41.25a1,1,0,0,1-1,1h-2a1,1,0,0,1-1-1V39.19a1,1,0,0,1,1-1h2a1,1,0,0,1,1,1Z"/><path class="cls-3" d="M38.16,41.25a1,1,0,0,1-1,1H35.08a1,1,0,0,1-1-1V39.19a1,1,0,0,1,1-1h2.06a1,1,0,0,1,1,1Z"/><path class="cls-3" d="M44.33,41.25a1,1,0,0,1-1,1H41.24a1,1,0,0,1-1-1V39.19a1,1,0,0,1,1-1H43.3a1,1,0,0,1,1,1v2.06Z"/><path class="cls-3" d="M50.49,41.25a1,1,0,0,1-1,1H47.41a1,1,0,0,1-1-1V39.19a1,1,0,0,1,1-1h2.06a1,1,0,0,1,1,1Z"/><path class="cls-3" d="M52.55,47.41a1,1,0,0,1-1,1H49.47a1,1,0,0,1-1-1V45.35a1,1,0,0,1,1-1h2.05a1,1,0,0,1,1,1Z"/><path class="cls-3" d="M46.39,47.41a1,1,0,0,1-1,1H43.3a1,1,0,0,1-1-1V45.35a1,1,0,0,1,1-1h2.05a1,1,0,0,1,1,1Z"/><path class="cls-3" d="M40.22,47.41a1,1,0,0,1-1,1h-2a1,1,0,0,1-1-1V45.35a1,1,0,0,1,1-1h2a1,1,0,0,1,1,1Z"/><path class="cls-3" d="M34.06,47.41a1,1,0,0,1-1,1H31a1,1,0,0,1-1-1V45.35a1,1,0,0,1,1-1H33a1,1,0,0,1,1,1Z"/><path class="cls-3" d="M27.89,47.41a1,1,0,0,1-1,1H24.81a1,1,0,0,1-1-1V45.35a1,1,0,0,1,1-1h2.05a1,1,0,0,1,1,1Z"/><path class="cls-3" d="M21.73,47.41a1,1,0,0,1-1,1H18.65a1,1,0,0,1-1-1V45.35a1,1,0,0,1,1-1H20.7a1,1,0,0,1,1,1Z"/><path class="cls-3" d="M15.56,47.41a1,1,0,0,1-1,1h-2a1,1,0,0,1-1-1V45.35a1,1,0,0,1,1-1h2a1,1,0,0,1,1,1Z"/><path class="cls-3" d="M17.62,53.58a1,1,0,0,1-1,1H14.53a1,1,0,0,1-1-1V51.52a1,1,0,0,1,1-1h2.06a1,1,0,0,1,1,1Z"/><path class="cls-3" d="M15.56,59.74a1,1,0,0,1-1,1h-2a1,1,0,0,1-1-1V57.68a1,1,0,0,1,1-1h2a1,1,0,0,1,1,1Z"/><path class="cls-3" d="M21.73,59.74a1,1,0,0,1-1,1H18.65a1,1,0,0,1-1-1V57.68a1,1,0,0,1,1-1H20.7a1,1,0,0,1,1,1Z"/><path class="cls-3" d="M23.78,53.58a1,1,0,0,1-1,1H20.7a1,1,0,0,1-1-1V51.52a1,1,0,0,1,1-1h2.06a1,1,0,0,1,1,1Z"/><path class="cls-3" d="M29.94,53.58a1,1,0,0,1-1,1H26.86a1,1,0,0,1-1-1V51.52a1,1,0,0,1,1-1h2.06a1,1,0,0,1,1,1Z"/><path class="cls-3" d="M36.11,53.58a1,1,0,0,1-1,1H33a1,1,0,0,1-1-1V51.52a1,1,0,0,1,1-1h2a1,1,0,0,1,1,1Z"/><path class="cls-3" d="M42.27,53.58a1,1,0,0,1-1,1H39.19a1,1,0,0,1-1-1V51.52a1,1,0,0,1,1-1h2.05a1,1,0,0,1,1,1v2.06Z"/><path class="cls-3" d="M48.43,53.58a1,1,0,0,1-1,1H45.35a1,1,0,0,1-1-1V51.52a1,1,0,0,1,1-1h2.06a1,1,0,0,1,1,1Z"/><path class="cls-3" d="M50.49,59.74a1,1,0,0,1-1,1H47.41a1,1,0,0,1-1-1V57.68a1,1,0,0,1,1-1h2.06a1,1,0,0,1,1,1Z"/><path class="cls-3" d="M60.76,41.25a1,1,0,0,1-.91,1H53.46a1,1,0,0,1-.91-1V39.19a1,1,0,0,1,.91-1h6.39a1,1,0,0,1,.91,1v2.06Z"/><path class="cls-3" d="M60.76,59.74a1,1,0,0,1-.91,1H53.46a1,1,0,0,1-.91-1V57.68a1,1,0,0,1,.91-1h6.39a1,1,0,0,1,.91,1v2.06Z"/><path class="cls-3" d="M60.76,53.58a.94.94,0,0,1-.84,1H51.33a1,1,0,0,1-.84-1V51.52a1,1,0,0,1,.84-1h8.59a.94.94,0,0,1,.84,1Z"/><path class="cls-3" d="M11.45,53.58a1,1,0,0,1-.91,1H4.15a1,1,0,0,1-.91-1V51.52a1,1,0,0,1,.91-1h6.39a1,1,0,0,1,.91,1v2.06Z"/><path class="cls-3" d="M60.76,47.41a1,1,0,0,1-.94,1H55.55a1,1,0,0,1-.95-1V45.35a1,1,0,0,1,.95-1h4.27a1,1,0,0,1,.94,1Z"/><path class="cls-3" d="M9.4,47.41a1,1,0,0,1-1,1H4.19a1,1,0,0,1-1-1V45.35a1,1,0,0,1,1-1H8.45a1,1,0,0,1,1,1Z"/><path class="cls-3" d="M9.4,59.74a1,1,0,0,1-1,1H4.19a1,1,0,0,1-1-1V57.68a1,1,0,0,1,1-1H8.45a1,1,0,0,1,1,1Z"/><path class="cls-3" d="M44.33,59.74a1,1,0,0,1-.86,1H24.64a1,1,0,0,1-.86-1V57.68a1,1,0,0,1,.86-1H43.47a1,1,0,0,1,.86,1Z"/><path class="cls-3" d="M8.29,36.11H6.4a1,1,0,1,1,0-2H8.29A1,1,0,1,1,8.29,36.11Z"/><path class="cls-3" d="M14.46,36.11h-1.9a1,1,0,1,1,0-2h1.9A1,1,0,1,1,14.46,36.11Z"/><path class="cls-3" d="M20.62,36.11h-1.9a1,1,0,1,1,0-2h1.9A1,1,0,1,1,20.62,36.11Z"/><path class="cls-3" d="M26.78,36.11H24.89a1,1,0,1,1,0-2h1.89A1,1,0,1,1,26.78,36.11Z"/><path class="cls-3" d="M33,36.11h-1.9a1,1,0,1,1,0-2H33A1,1,0,1,1,33,36.11Z"/><path class="cls-3" d="M39.11,36.11H37.22a1,1,0,1,1,0-2h1.89A1,1,0,1,1,39.11,36.11Z"/><path class="cls-3" d="M45.27,36.11H43.38a1,1,0,1,1,0-2h1.89A1,1,0,1,1,45.27,36.11Z"/><path class="cls-3" d="M51.44,36.11H49.55a1,1,0,1,1,0-2h1.89A1,1,0,1,1,51.44,36.11Z"/><path class="cls-3" d="M57.6,36.11H55.71a1,1,0,1,1,0-2H57.6A1,1,0,1,1,57.6,36.11Z"/></svg>