<svg id="Layer_1" data-name="Layer 1" xmlns="http://www.w3.org/2000/svg" viewBox="0 0 64 64"><defs><style>.cls-1{fill:#2590ba;}.cls-2{fill:#fff;}.cls-3{fill:#438ac1;}.cls-4{fill:#afb7b7;}.cls-5{fill:#ed4c5c;}</style></defs><title>sjmdicon-clock</title><ellipse class="cls-1" cx="32.08" cy="35.76" rx="25.19" ry="25.3"/><ellipse class="cls-2" cx="32.08" cy="35.76" rx="19.59" ry="19.68"/><path class="cls-1" d="M11,48.29,8.75,62h1.87c1.17,0,1.59-1.37,2.35-3.07,1-2.17,3.44-7.93,3.44-7.93Z"/><path class="cls-1" d="M53.11,48.29,55.4,62H53.54c-1.17,0-1.6-1.37-2.36-3.07-1-2.17-3.44-7.93-3.44-7.93Z"/><polygon class="cls-1" points="13.29 10.21 19.15 16.14 16.06 19.27 10.19 13.34 13.29 10.21"/><polygon class="cls-3" points="50.87 10.21 45 16.14 48.1 19.27 53.96 13.34 50.87 10.21"/><path class="cls-4" d="M5.68,23.58,23.35,5.72A12.4,12.4,0,0,0,14.49,2,12.66,12.66,0,0,0,5.68,23.58Z"/><path class="cls-4" d="M40.52,5.77,58.3,23.52A12.56,12.56,0,1,0,40.52,5.77Z"/><polygon class="cls-5" points="20.59 46.56 30.91 36.12 32.08 37.29 21.75 47.73 20.59 46.56"/><ellipse class="cls-1" cx="32.08" cy="35.76" rx="3.73" ry="3.75"/><rect class="cls-1" x="30.21" y="21.71" width="3.73" height="14.99"/><rect class="cls-1" x="33.94" y="33.89" width="7.46" height="3.75"/></svg>