<svg id="Layer_1" data-name="Layer 1" xmlns="http://www.w3.org/2000/svg" viewBox="0 0 64 64"><defs><style>.cls-1{fill:#f3f602;}.cls-2{fill:#3f4347;}.cls-3{fill:#d0d0d0;}.cls-4{fill:#ef5b7a;}</style></defs><title>sjmdicon-roadblock</title><rect class="cls-1" x="3.42" y="17.49" width="57.15" height="19.64"/><polygon class="cls-2" points="12.7 37.14 3.42 37.14 12 17.49 21.28 17.49 12.7 37.14"/><polyline class="cls-2" points="23.07 37.14 31.19 17.49 40.93 17.49 32.81 37.14"/><polyline class="cls-2" points="42.72 37.14 50.83 17.49 60.58 17.49 52.46 37.14"/><rect class="cls-3" x="11.38" y="10.93" width="3.75" height="6.07"/><rect class="cls-3" x="12.32" y="10.93" width="1.87" height="6.07"/><circle class="cls-3" cx="13.26" cy="8.57" r="6.56"/><circle class="cls-3" cx="13.26" cy="8.57" r="5.62"/><circle class="cls-4" cx="13.26" cy="8.57" r="4.69"/><rect class="cls-3" x="48.87" y="10.93" width="3.75" height="6.07"/><rect class="cls-3" x="49.81" y="10.93" width="1.87" height="6.07"/><circle class="cls-3" cx="50.74" cy="8.57" r="6.56"/><circle class="cls-3" cx="50.74" cy="8.57" r="5.62" transform="translate(8.8 38.39) rotate(-45)"/><circle class="cls-4" cx="50.74" cy="8.57" r="4.69" transform="matrix(0.85, -0.53, 0.53, 0.85, 3.07, 27.96)"/><rect class="cls-3" x="11.38" y="37.62" width="3.75" height="24.37"/><rect class="cls-3" x="12.32" y="37.62" width="1.87" height="24.37"/><path class="cls-2" d="M17,62H9.51s1.87-2.47,1.87-3.31h3.75C15.13,59.52,17,62,17,62Z"/><rect class="cls-3" x="48.87" y="37.62" width="3.75" height="24.37"/><rect class="cls-3" x="49.81" y="37.62" width="1.87" height="24.37"/><path class="cls-2" d="M54.49,62H47s1.88-2.47,1.88-3.31h3.75C52.62,59.52,54.49,62,54.49,62Z"/><rect class="cls-3" x="7.95" y="44.18" width="48.11" height="3.75"/><rect class="cls-3" x="9.52" y="45.12" width="44.96" height="1.87"/><path class="cls-2" d="M13.26,45.37a.69.69,0,0,1,0,1.38.69.69,0,0,1,0-1.38Z"/><path class="cls-2" d="M50.74,45.37a.69.69,0,1,1,0,1.38.69.69,0,0,1,0-1.38Z"/><path class="cls-3" d="M60.12,34.81a.94.94,0,0,1-.94.94H4.82a.94.94,0,0,1-.94-.94v-15a.94.94,0,0,1,.94-.94H59.18a.94.94,0,0,1,.94.94v15ZM61.05,17H3a.94.94,0,0,0-.94.94V36.69a.94.94,0,0,0,.94.93h58.1a.94.94,0,0,0,.94-.93V17.94A.94.94,0,0,0,61.05,17Z"/><path class="cls-3" d="M4.82,35.75a.94.94,0,0,1-.94-.94v-15a.94.94,0,0,1,.94-.94H59.18a.94.94,0,0,1,.94.94v15a.94.94,0,0,1-.94.94ZM61.05,17H3a.94.94,0,0,0-.94.94V36.69a.94.94,0,0,0,.94.93h58.1a.94.94,0,0,0,.94-.93V17.94A.94.94,0,0,0,61.05,17ZM4.82,36.22H59.18a1.41,1.41,0,0,0,1.4-1.41v-15a1.41,1.41,0,0,0-1.4-1.41H4.82a1.41,1.41,0,0,0-1.4,1.41v15a1.4,1.4,0,0,0,1.4,1.41M61.05,17.47a.47.47,0,0,1,.47.47V36.69a.47.47,0,0,1-.47.46H3a.47.47,0,0,1-.47-.46V17.94A.47.47,0,0,1,3,17.47h58.1"/></svg>