<svg id="Layer_1" data-name="Layer 1" xmlns="http://www.w3.org/2000/svg" viewBox="0 0 64 64"><defs><style>.cls-1{fill:#88664d;}.cls-2{fill:#a47b5e;}.cls-3{fill:#decda3;}.cls-4{fill:#be9072;}.cls-5{fill:#eed7b1;}.cls-6{fill:#fff6d6;}.cls-7{fill:#7d8a90;}</style></defs><title>sjmdicon-dogma</title><path class="cls-1" d="M10.1,4.72a1.16,1.16,0,1,1-2.32,0V2.93a1.16,1.16,0,1,1,2.32,0Z"/><path class="cls-1" d="M7.78,59.27a1.16,1.16,0,1,1,2.32,0v1.79a1.16,1.16,0,1,1-2.32,0Z"/><path class="cls-2" d="M14.14,7.2a3,3,0,0,1-2.94,3H6.69a3,3,0,0,1,0-5.92H11.2A3,3,0,0,1,14.14,7.2Z"/><path class="cls-2" d="M3.74,56.79a3,3,0,0,1,2.94-3H11.2a3,3,0,0,1,0,5.92H6.68A3,3,0,0,1,3.74,56.79Z"/><rect class="cls-3" x="4.02" y="11.13" width="9.85" height="41.74"/><path class="cls-1" d="M16.12,9.82a1.31,1.31,0,0,1-1.3,1.31H3.06a1.31,1.31,0,0,1,0-2.62H14.82A1.31,1.31,0,0,1,16.12,9.82Z"/><path class="cls-1" d="M1.76,54.17a1.31,1.31,0,0,1,1.3-1.31H14.82a1.31,1.31,0,0,1,0,2.62H3.06A1.3,1.3,0,0,1,1.76,54.17Z"/><path class="cls-2" d="M9.84,4.72a1.07,1.07,0,0,1-.9,1.18A1.08,1.08,0,0,1,8,4.72V2.93a1.07,1.07,0,0,1,.9-1.17,1.06,1.06,0,0,1,.9,1.17Z"/><path class="cls-2" d="M8,59.27a1.06,1.06,0,0,1,.9-1.17,1.06,1.06,0,0,1,.9,1.17v1.79a1.06,1.06,0,0,1-.9,1.17A1.06,1.06,0,0,1,8,61.06Z"/><path class="cls-4" d="M13,7.2c0,1.64-1,3-2.27,3H7.2c-1.26,0-2.28-1.32-2.28-3s1-3,2.28-3h3.49C11.94,4.24,13,5.57,13,7.2Z"/><path class="cls-4" d="M4.92,56.79c0-1.63,1-3,2.28-3h3.49c1.25,0,2.27,1.32,2.27,3s-1,3-2.27,3H7.2C5.94,59.75,4.92,58.43,4.92,56.79Z"/><rect class="cls-5" x="5.13" y="11.13" width="7.62" height="41.74"/><path class="cls-2" d="M14.5,9.82a1.19,1.19,0,0,1-1,1.31H4.39a1.19,1.19,0,0,1-1-1.31,1.19,1.19,0,0,1,1-1.31h9.1A1.19,1.19,0,0,1,14.5,9.82Z"/><path class="cls-2" d="M3.39,54.17a1.19,1.19,0,0,1,1-1.31h9.1a1.35,1.35,0,0,1,0,2.62H4.39A1.18,1.18,0,0,1,3.39,54.17Z"/><path class="cls-1" d="M56.22,4.73a1.16,1.16,0,1,1-2.32,0V2.94a1.16,1.16,0,1,1,2.32,0Z"/><path class="cls-1" d="M53.89,59.28a1.17,1.17,0,1,1,2.33,0v1.79a1.17,1.17,0,1,1-2.33,0Z"/><path class="cls-2" d="M60.25,7.21a2.94,2.94,0,0,1-2.94,3H52.8a3,3,0,0,1,0-5.92h4.51A3,3,0,0,1,60.25,7.21Z"/><path class="cls-2" d="M49.86,56.8a3,3,0,0,1,2.94-3h4.51a3,3,0,0,1,0,5.92H52.8A3,3,0,0,1,49.86,56.8Z"/><rect class="cls-3" x="50.13" y="11.14" width="9.85" height="41.74"/><path class="cls-1" d="M62.24,9.83a1.31,1.31,0,0,1-1.3,1.31H49.18a1.31,1.31,0,0,1,0-2.62H60.94A1.31,1.31,0,0,1,62.24,9.83Z"/><path class="cls-1" d="M47.88,54.18a1.31,1.31,0,0,1,1.3-1.31H60.94a1.31,1.31,0,0,1,0,2.62H49.18A1.31,1.31,0,0,1,47.88,54.18Z"/><path class="cls-2" d="M56,4.73a.93.93,0,1,1-1.8,0V2.94a1.06,1.06,0,0,1,.9-1.17A1.07,1.07,0,0,1,56,2.94Z"/><path class="cls-2" d="M54.16,59.28a.93.93,0,1,1,1.8,0v1.79a.93.93,0,1,1-1.8,0V59.28Z"/><path class="cls-4" d="M59.08,7.21c0,1.64-1,3-2.28,3H53.31c-1.25,0-2.27-1.32-2.27-3s1-3,2.27-3H56.8C58.06,4.25,59.08,5.58,59.08,7.21Z"/><path class="cls-4" d="M51,56.8c0-1.64,1-3,2.27-3H56.8c1.26,0,2.28,1.32,2.28,3s-1,3-2.28,3H53.31C52.05,59.76,51,58.43,51,56.8Z"/><rect class="cls-5" x="51.25" y="11.14" width="7.62" height="41.74"/><path class="cls-2" d="M60.61,9.83a1.19,1.19,0,0,1-1,1.31h-9.1a1.19,1.19,0,0,1-1-1.31,1.19,1.19,0,0,1,1-1.31h9.1A1.19,1.19,0,0,1,60.61,9.83Z"/><path class="cls-2" d="M49.5,54.18a1.19,1.19,0,0,1,1-1.31h9.1a1.36,1.36,0,0,1,0,2.62h-9.1A1.19,1.19,0,0,1,49.5,54.18Z"/><path class="cls-6" d="M50.13,52.86c-18.13,3.93-36.26,0-36.26,0V11.13c18.13,3.86,36.26,0,36.26,0V52.86Z"/><path class="cls-7" d="M32,18.65c-8.68,0-13.32-1.38-13.52-1.44l.28-.9S23.47,17.7,32,17.7c9.1,0,13.6-1.38,13.65-1.39l.28.9C45.74,17.27,41.27,18.65,32,18.65Z"/><path class="cls-7" d="M32,23c-8.68,0-13.32-1.38-13.52-1.44l.28-.91S23.47,22,32,22c9.1,0,13.6-1.38,13.65-1.4l.28.91C45.74,21.58,41.27,23,32,23Z"/><path class="cls-7" d="M32,27.28c-8.68,0-13.32-1.38-13.52-1.44l.28-.9s4.71,1.4,13.24,1.4Z"/><path class="cls-7" d="M32,35.91c-2.35,0-4.62-.1-6.74-.3l.09-.94c2.09.19,4.33.3,6.65.3,9.1,0,13.6-1.39,13.65-1.4l.28.9C45.74,34.53,41.27,35.91,32,35.91Z"/><path class="cls-7" d="M32,40.23c-8.68,0-13.32-1.38-13.52-1.44l.28-.91s4.71,1.4,13.24,1.4c9.1,0,13.6-1.38,13.65-1.39l.28.9C45.74,38.85,41.27,40.23,32,40.23Z"/><path class="cls-7" d="M32,44.54c-8.68,0-13.32-1.38-13.52-1.44l.28-.9S23.47,43.6,32,43.6c9.12,0,13.6-1.38,13.65-1.4l.28.9C45.74,43.16,41.27,44.54,32,44.54Z"/><path class="cls-7" d="M32,48.86c-8.68,0-13.32-1.38-13.52-1.44l.28-.9S23.47,47.91,32,47.91Z"/></svg>