<svg xmlns="http://www.w3.org/2000/svg" viewBox="0 0 61.4 40.9"><path fill="#5A6167" d="M11.4 18.6v7c0 14.3 38.6 14.3 38.6 0v-7H11.4z"/><path fill="#3F4347" d="M61.4 13.8L30.7 27.6 0 13.8 30.7 0l30.7 13.8z"/><path fill="#FFCE30" d="M30.6 13.1l-15.4 7c-.2.1-.3.4-.3.6v6.9c0 .8 1 .8 1 0v-6.5l15-6.7c.5-.3.3-1.6-.3-1.3z"/><path fill="#FFCE30" d="M15.4 25.1c1.2.2 2 1.3 1.9 2.5.1 1.2-.8 2.3-2 2.5-1.2-.2-2-1.3-1.9-2.5-.1-1.2.8-2.3 2-2.5z"/><path fill="#FFCE30" d="M15.4 40.9c1 0 1.9-.6 1.9-1.3v-12h-3.9v12c0 .7.9 1.3 2 1.3z"/><path fill="#5A4740" d="M16.7 27.8l-.2.1v12.7h.2V27.8zm-.8.3h-.2v12.7h.2V28.1zm-.8.1h-.2v12.6h.2V28.2zm-.8-.3l-.2-.1v12.6l.2.1V27.9z"/></svg>