<svg id="Layer_1" data-name="Layer 1" xmlns="http://www.w3.org/2000/svg" viewBox="0 0 64 64"><defs><style>.cls-1{fill:#88664d;}.cls-2{fill:#a47b5e;}.cls-3{fill:#decda3;}.cls-4{fill:#be9072;}.cls-5{fill:#eed7b1;}.cls-6{fill:#fff6d6;}.cls-7{fill:#7d8a90;}.cls-8{fill:#ef5b7a;}</style></defs><title>sjmdicon-minus-dogma</title><path class="cls-1" d="M27.39,15.6a.58.58,0,0,1-.75.31.57.57,0,0,1-.3-.75l.35-.8a.55.55,0,0,1,.74-.3.56.56,0,0,1,.3.74Z"/><path class="cls-1" d="M16,39.61a.56.56,0,1,1,1,.44l-.34.8a.56.56,0,1,1-1-.44Z"/><path class="cls-2" d="M28.72,17.48a1.43,1.43,0,0,1-1.88.77l-2-.86A1.44,1.44,0,0,1,26,14.74l2,.86A1.43,1.43,0,0,1,28.72,17.48Z"/><path class="cls-2" d="M14.61,37.73A1.44,1.44,0,0,1,16.5,37l2,.86a1.44,1.44,0,0,1-1.13,2.65l-2-.86A1.43,1.43,0,0,1,14.61,37.73Z"/><rect class="cls-3" x="11.51" y="25.21" width="20.32" height="4.8" transform="translate(-12.21 36.74) rotate(-66.96)"/><path class="cls-1" d="M29.11,19a.63.63,0,0,1-.83.33L23,17.13a.64.64,0,0,1,.5-1.17l5.27,2.24A.64.64,0,0,1,29.11,19Z"/><path class="cls-1" d="M14.22,36.17a.64.64,0,0,1,.84-.33l5.27,2.24a.64.64,0,0,1-.5,1.17L14.56,37A.65.65,0,0,1,14.22,36.17Z"/><path class="cls-2" d="M27.27,15.55a.46.46,0,1,1-.81-.34l.34-.8a.45.45,0,1,1,.81.34Z"/><path class="cls-2" d="M16.07,39.66a.52.52,0,0,1,.62-.36.51.51,0,0,1,.18.7l-.34.8a.5.5,0,0,1-.62.35.5.5,0,0,1-.18-.69Z"/><path class="cls-4" d="M28.19,17.26a1.3,1.3,0,0,1-1.58.89l-1.56-.66a1.31,1.31,0,0,1-.46-1.76,1.3,1.3,0,0,1,1.58-.9l1.57.67A1.3,1.3,0,0,1,28.19,17.26Z"/><path class="cls-4" d="M15.14,38a1.31,1.31,0,0,1,1.59-.89l1.56.66a1.5,1.5,0,0,1-1.13,2.66l-1.56-.67A1.31,1.31,0,0,1,15.14,38Z"/><rect class="cls-5" x="11.51" y="25.75" width="20.32" height="3.71" transform="translate(-12.21 36.74) rotate(-66.96)"/><path class="cls-2" d="M28.38,18.73a.57.57,0,0,1-.7.39l-4.07-1.73a.66.66,0,0,1,.49-1.18L28.18,18A.57.57,0,0,1,28.38,18.73Z"/><path class="cls-2" d="M15,36.48a.58.58,0,0,1,.7-.39l4.08,1.73a.66.66,0,0,1-.5,1.18l-4.08-1.74A.57.57,0,0,1,15,36.48Z"/><path class="cls-1" d="M48.05,24.4a.57.57,0,0,1-.74.3A.57.57,0,0,1,47,24l.34-.8a.56.56,0,1,1,1,.44Z"/><path class="cls-1" d="M36.61,48.4a.57.57,0,1,1,1,.44l-.35.8a.55.55,0,0,1-.74.3.56.56,0,0,1-.3-.74Z"/><path class="cls-2" d="M49.39,26.28A1.45,1.45,0,0,1,47.5,27l-2-.86a1.44,1.44,0,0,1,1.13-2.65l2,.86A1.44,1.44,0,0,1,49.39,26.28Z"/><path class="cls-2" d="M35.28,46.52a1.43,1.43,0,0,1,1.88-.77l2,.86a1.44,1.44,0,1,1-1.13,2.65l-2-.86A1.43,1.43,0,0,1,35.28,46.52Z"/><rect class="cls-3" x="32.17" y="34" width="20.32" height="4.8" transform="translate(-7.73 61.11) rotate(-66.96)"/><path class="cls-1" d="M49.78,27.83a.64.64,0,0,1-.84.33l-5.27-2.24a.63.63,0,0,1-.33-.83.64.64,0,0,1,.83-.34L49.44,27A.65.65,0,0,1,49.78,27.83Z"/><path class="cls-1" d="M34.89,45a.63.63,0,0,1,.83-.34L41,46.87a.64.64,0,0,1-.5,1.17L35.22,45.8A.63.63,0,0,1,34.89,45Z"/><path class="cls-2" d="M47.93,24.35a.45.45,0,1,1-.8-.35l.34-.8a.5.5,0,0,1,.62-.35.5.5,0,0,1,.18.69Z"/><path class="cls-2" d="M36.73,48.45a.46.46,0,1,1,.81.34l-.34.8a.45.45,0,1,1-.81-.34l.34-.8Z"/><path class="cls-4" d="M48.86,26.05a1.31,1.31,0,0,1-1.59.89l-1.56-.66a1.31,1.31,0,0,1-.46-1.76,1.32,1.32,0,0,1,1.59-.89l1.56.66A1.31,1.31,0,0,1,48.86,26.05Z"/><path class="cls-4" d="M35.81,46.74a1.3,1.3,0,0,1,1.58-.89l1.56.66a1.49,1.49,0,0,1-1.12,2.66l-1.57-.67A1.3,1.3,0,0,1,35.81,46.74Z"/><rect class="cls-5" x="32.17" y="34.54" width="20.32" height="3.71" transform="translate(-7.73 61.11) rotate(-66.96)"/><path class="cls-2" d="M49.05,27.52a.58.58,0,0,1-.7.39l-4.08-1.73a.58.58,0,0,1-.2-.78.59.59,0,0,1,.7-.4l4.08,1.74A.59.59,0,0,1,49.05,27.52Z"/><path class="cls-2" d="M35.62,45.28a.57.57,0,0,1,.7-.4l4.07,1.73a.66.66,0,0,1-.49,1.18l-4.08-1.74A.56.56,0,0,1,35.62,45.28Z"/><path class="cls-6" d="M36.15,44.81A47.24,47.24,0,0,1,19.9,37.89l8-18.7A47.87,47.87,0,0,0,44.1,26.1l-8,18.7Z"/><path class="cls-7" d="M34.54,26a25.17,25.17,0,0,1-5.78-3.22l.3-.36a23.94,23.94,0,0,0,5.66,3.15,24.56,24.56,0,0,0,6.39,2l0,.46A25.24,25.24,0,0,1,34.54,26Z"/><path class="cls-7" d="M33.72,28a24.44,24.44,0,0,1-5.78-3.22l.29-.35a25.42,25.42,0,0,0,5.67,3.15,24.85,24.85,0,0,0,6.38,2l0,.46A24.51,24.51,0,0,1,33.72,28Z"/><path class="cls-7" d="M32.9,29.88a24.67,24.67,0,0,1-5.78-3.21l.29-.36a24.47,24.47,0,0,0,5.67,3.15Z"/><path class="cls-7" d="M31.25,33.75c-1.05-.45-2-.92-3-1.42l.22-.4c.9.49,1.88,1,2.92,1.4a24.72,24.72,0,0,0,6.39,2l0,.46A24.74,24.74,0,0,1,31.25,33.75Z"/><path class="cls-7" d="M30.43,35.69a24.88,24.88,0,0,1-5.78-3.22l.29-.36a24.47,24.47,0,0,0,5.67,3.15,24.69,24.69,0,0,0,6.38,2l0,.46A25,25,0,0,1,30.43,35.69Z"/><path class="cls-7" d="M29.61,37.62a24.44,24.44,0,0,1-5.78-3.22l.29-.35a25.42,25.42,0,0,0,5.67,3.15,25,25,0,0,0,6.38,2l0,.46A24.51,24.51,0,0,1,29.61,37.62Z"/><path class="cls-7" d="M28.79,39.55A24.52,24.52,0,0,1,23,36.33l.3-.35A24.47,24.47,0,0,0,29,39.13Z"/><path class="cls-8" d="M10,32a22,22,0,0,1,3.88-12.48L44.48,50.14A22,22,0,0,1,10,32Zm44,0a22,22,0,0,1-3.88,12.48L19.52,13.86A22,22,0,0,1,54,32ZM32,2A30,30,0,1,0,62,32,30,30,0,0,0,32,2Z"/></svg>