<svg id="Layer_1" data-name="Layer 1" xmlns="http://www.w3.org/2000/svg" viewBox="0 0 64 64"><defs><style>.cls-1{fill:#92a2aa;}.cls-2{fill:#943435;}.cls-3{fill:#b0bcc5;}.cls-4{fill:#ef5b7a;}.cls-5{fill:#d9e3e8;}.cls-6{fill:#7d8a90;}</style></defs><title>sjmdicon-reading</title><path class="cls-1" d="M49.52,34.3c-3.05-8.08-11.23-14.66-8.36-24.47L8,12.76C2.62,31.08,25.46,41.17,20.11,59.49c10-5.16,20.36-9.79,30.34-15C51.5,40.94,50.65,37.26,49.52,34.3Z"/><path class="cls-2" d="M8,37.51l8.86-5.16a19.07,19.07,0,0,1,4.83,6.12l-9.29,4.62a19.05,19.05,0,0,0,0-4A41.94,41.94,0,0,0,8,37.51Z"/><path class="cls-3" d="M57.51,33.28C54,24,44.6,16.43,47.89,5.16L9.77,8.53C3.61,29.59,29.86,41.18,23.7,62.24,35.17,56.31,47.11,51,58.57,45.06,59.78,40.92,58.8,36.69,57.51,33.28Z"/><path class="cls-4" d="M1.76,23.52,13.5,20a23.57,23.57,0,0,1,4.08,8.55L5.48,31.31a23.24,23.24,0,0,0,1-4.68A48.29,48.29,0,0,0,1.76,23.52Z"/><path class="cls-5" d="M11.54,6.52C6.28,26.69,33,36.58,27.73,56.75c11.2-6.08,22.91-11.61,34.11-17.69,1-4-.12-7.93-1.55-11.09C56.39,19.33,46.68,12.56,49.5,1.76Z"/><path class="cls-6" d="M15.75,13.52a20.15,20.15,0,0,0,.42,2.19l28.61-5.63a16.53,16.53,0,0,1-.34-1.73Z"/><path class="cls-6" d="M18.43,21.49l28.13-6.84c-.27-.52-.53-1.05-.76-1.59L17.47,19.48Q17.91,20.5,18.43,21.49Z"/><path class="cls-6" d="M21.76,26.92l27.39-8c-.35-.5-.68-1-1-1.51L20.49,25C20.9,25.65,21.33,26.29,21.76,26.92Z"/><path class="cls-6" d="M32,44.92c.17.72.3,1.45.4,2.2L45,41a18.44,18.44,0,0,0-.35-2Z"/></svg>