<svg id="Layer_1" data-name="Layer 1" xmlns="http://www.w3.org/2000/svg" viewBox="0 0 64 64"><defs><style>.cls-1{fill:#eed7b1;}.cls-2{fill:#fff6d6;}.cls-3{fill:#7d8a90;}.cls-4{fill:#ffce30;}.cls-5{fill:#ed4c5c;}.cls-6{fill:#92a2aa;}.cls-7{fill:#c7d3d8;}.cls-8{fill:#fcd0ac;}.cls-9{fill:#333;}.cls-10{fill:#ffde83;}.cls-11{fill:#f5863b;}</style></defs><title>sjmdicon-writing</title><path class="cls-1" d="M2.25,21.68S28.09,49.14,30.82,61.75c0,0,7.39-16.44,30.11-23.26,0,0-8.06-18.92-29.51-33.92C31.42,4.57,9.49,11.11,2.25,21.68Z"/><path class="cls-2" d="M5.16,10.29s20.15,35,20.53,48.11c0,0,10.13-13.57,33.4-12.86,0,0-4.41-21-22.55-42.45C36.54,3.09,14.08,2.36,5.16,10.29Z"/><path class="cls-3" d="M20.48,11.68c.18-.27.23-.76.51-1s.77-.11,1.11-.35c.7-.51,1.08-1.51,1.74-2.1a7.59,7.59,0,0,1,2.62-1.49c1-.38,2-1.12,3.06-1.06-.41,1.41-1.39,2.59-1.6,4.08A12.65,12.65,0,0,0,28,12.25a13.27,13.27,0,0,1,.59-1.85c.38-.8,1.16-.71,1.9-1a8.66,8.66,0,0,0,2-1.53c.25.43,1.26-.32,1.44.35.08.29,2.6-.05,2.79-.14-.52,0-2.48.1-2.57-.39a4,4,0,0,0-1.23-.22,3,3,0,0,1,0-.61c-.56.4-1.08.86-1.63,1.28-.82.63-1.86.5-2.63,1.06.31-.93.87-1.74,1.22-2.65a5.73,5.73,0,0,0,.33-1.23c.06-.39,0-.19-.24-.36-1.24-.33-2.6.62-3.68,1.13a8.4,8.4,0,0,0-2.7,1.74c-.46.47-1.19,2.14-1.81,2.29-1.25,0-.87,1.16-1.67,1.55-.42.21-.77.18-1.17.49s-1.12,1-1.8.94a3.56,3.56,0,0,0-.22-1.68c-.69.34-1.05,1-1.61,1.49.2-1.43.81-2.7.83-4.18a5.23,5.23,0,0,0-1.76,2c-.52,1-1,2.65-2.09,3.2,0-1.41.6-2.76.43-4.18-.18.62-.22,1.5-.41,2.21A7.83,7.83,0,0,0,12,14.55c2-.28,2.4-3.25,3.56-4.51a14.87,14.87,0,0,0-.66,3.85c.82-.49,1.18-1.36,1.92-1.92.26.83-.32,1.92,1,1.31a12.51,12.51,0,0,0,1.53-1.09C19.69,12,20.22,12.1,20.48,11.68Z"/><path class="cls-3" d="M40.25,15.76c-.37-.32-1-.43-1.46-.82s-1.42-.26-2-.12c-1.5.35-2.47.77-3.88,0,0,.45.08,2.32-.64,2.2s-.48-1.92-.54-2.52A3.11,3.11,0,0,0,31,16.12c0,.48.21.76-.2,1.15a2.48,2.48,0,0,1-2,.28A16.46,16.46,0,0,1,29,14.27c-.22.94-.43,1.87-.65,2.81-.16.69-.78.83-1.41.64-.12-.16.07-.94.08-1.13a25.75,25.75,0,0,1-1.64,3.23c-.33.43-1.19.9-1.54.19a3,3,0,0,1,0-1.67c-.42.53-.87,2.12-1.67,2.09.09-.39.4-.71-.06-.95-.21.41-.39.86-.6,1.27A11,11,0,0,0,21.94,19a7.07,7.07,0,0,0-2.6,3,3.4,3.4,0,0,0,.06-.81c-.1.4-.82,1.76-.38,2a12,12,0,0,1,2.14-2.94,23.33,23.33,0,0,0-1.3,4A10.94,10.94,0,0,0,21.4,22c.13-.26.26-.53.37-.8.3-.69.29-.18.79-.54a4.1,4.1,0,0,0,1-1.53c-.07,1.61,1.31,1.9,2.2.65a13,13,0,0,0,.89-1.64s.71.21.78.22a1.23,1.23,0,0,0,.89-.23c1,.36,2.6.42,3.22-.7,1.13,1.19,1.84-.66,1.9-1.57,1.12.41,2.15-.08,3.19-.46.6-.22,1.82-.71,2.26,0C39.32,15.6,39.79,15.63,40.25,15.76Z"/><path class="cls-3" d="M30.5,25.16l.07,0S30.5,25.14,30.5,25.16Z"/><path class="cls-3" d="M30,24.84c.05.05.12.07.14.15Zm.48.32a.37.37,0,0,0-.63-.29c-.42.33-.19-.28-.16-.63s.07-.83.1-1.24c-.2.37-.44.74-.63,1.12-.35.63-.24,1.8-1.21,1.92q.21-.69.39-1.38c-.5.42-1,.72-1,1.45,0,.89-.94,3.08-2.12,2.85.1-1.8,1.11-3.47,1.51-5.22a8.7,8.7,0,0,0-3.62,5.89c.94-1.51,1.56-3.28,2.84-4.57A26,26,0,0,0,25,29.12c0,.24.71.11.81.07a2.79,2.79,0,0,0,1.41-1.38,5.26,5.26,0,0,0,.34-.67c.26-.57.36-.2.87-.43s.66-1.08,1.27-1a5.12,5.12,0,0,0,2.49-.37,8.8,8.8,0,0,1-1.62-.15Z"/><path class="cls-3" d="M41,44s0,0,0,0a.63.63,0,0,0-.12.1Z"/><path class="cls-3" d="M52.47,38.38l-.17,0C52.25,38.24,52.3,38.25,52.47,38.38Zm-.84,1.68a1.42,1.42,0,0,0,.11-.35A4.77,4.77,0,0,1,51,40c0-.3-.09-1,.27-1.14.73-.38.69.8.85,1.26Zm-.17.56,0-.14C51.49,40.62,51.47,40.58,51.46,40.62ZM49,41.25c-.76.21-.75-.51-.64-1l1.44.48A1.59,1.59,0,0,1,49,41.25Zm-6.35.7c-2.2-.91.68-3.74,1.9-4.29A9.24,9.24,0,0,1,42.67,42Zm-1.69,2c.13-.12.24-.21,0,0l-.09.07a2.62,2.62,0,0,1-1.66.79,8.62,8.62,0,0,1,.87-4.22c.35-.59.84-.77,1.35-.24.36.4-.07.76-.09,1.12.09-.17.18-.33.28-.49a1.53,1.53,0,0,0,.91,1.19A11.16,11.16,0,0,1,41,43.92Zm14.85-4.49a49.82,49.82,0,0,0-5.37-2.93,8.73,8.73,0,0,1,1.18,1.82c-1,.08-.82,1.7-.94,1.71-.44-.31-1.71,0-2.3.08l.06-.31c-1.7,1.13-3,2.72-5.22,2.31A8.62,8.62,0,0,0,45,36.92c-1.61.58-2.56,2.15-3.27,3.61-.16-.57-.9-1-1.41-.58a4.06,4.06,0,0,0-1,2,11.51,11.51,0,0,0-.45,2.61c0,.6-.12.74.55.72,1.55,0,2.9-1.79,3.68-2.95,2,.54,3.21-.41,4.77-1.47a1,1,0,0,0,1.27,1c.73-.17,1-1.09,1.63-1.13.42,0,.68.18,1.16.17s1-.09,1.48-.14a4.37,4.37,0,0,1-.93-2A11.42,11.42,0,0,0,55.83,39.43Z"/><rect class="cls-4" x="35.3" y="13.32" width="20.94" height="9.81" transform="translate(0.51 37.7) rotate(-44.99)"/><path class="cls-5" d="M59.67,5.21l-.88-.88a4.29,4.29,0,0,0-6.06,0l-3,3,6.93,6.94,3-3A4.29,4.29,0,0,0,59.67,5.21Z"/><rect class="cls-6" x="50.89" y="6.87" width="2.68" height="9.81" transform="translate(6.97 40.37) rotate(-44.99)"/><rect class="cls-7" x="50.89" y="7.92" width="2.68" height="7.71" transform="translate(6.97 40.38) rotate(-45)"/><polygon class="cls-8" points="34.9 22.16 31.89 30.03 33.96 32.11 41.84 29.1 34.9 22.16"/><path class="cls-9" d="M31.36,31.41c-.41,1.09.14,1.64,1.23,1.22l3.82-1.45-3.58-3.59Z"/><rect class="cls-10" x="33.38" y="15.23" width="18.26" height="3.27" transform="translate(0.53 35) rotate(-45)"/><rect class="cls-11" x="38.01" y="19.85" width="18.26" height="3.27" transform="translate(-1.39 39.63) rotate(-45.01)"/></svg>