<svg id="Layer_1" data-name="Layer 1" xmlns="http://www.w3.org/2000/svg" viewBox="0 0 64 64"><defs><style>.cls-1{fill:#b1c0bf;}.cls-2{fill:#e8e7e7;}.cls-3{fill:#f3f602;}.cls-4{fill:#f16f7f;}.cls-5{fill:#62737b;}.cls-6{fill:#d6edf0;}</style></defs><title>sjmdicon-diner</title><rect class="cls-1" x="2.39" y="57.91" width="59.22" height="3.7" rx="0.93"/><path class="cls-2" d="M49.58,28.3H14.42a5.57,5.57,0,0,0-5.55,5.55V57.91H55.13V33.85A5.57,5.57,0,0,0,49.58,28.3Z"/><path class="cls-3" d="M32.93,2.39H14.42A5.57,5.57,0,0,0,8.87,7.94V24.6H38.48V7.94A5.57,5.57,0,0,0,32.93,2.39Z"/><rect class="cls-1" x="29.22" y="24.6" width="3.7" height="3.7"/><rect class="cls-1" x="14.42" y="24.6" width="3.7" height="3.7"/><path class="cls-4" d="M49.58,30.15H14.42a3.7,3.7,0,0,0-3.7,3.7v7.4H53.28v-7.4A3.7,3.7,0,0,0,49.58,30.15Z"/><rect class="cls-3" x="10.72" y="33.85" width="42.56" height="3.7"/><path class="cls-4" d="M36.63,22.75H10.72V7.94a3.7,3.7,0,0,1,3.7-3.7H32.93a3.7,3.7,0,0,1,3.7,3.7ZM32.93,2.39H14.42A5.57,5.57,0,0,0,8.87,7.94V24.6H38.48V7.94A5.57,5.57,0,0,0,32.93,2.39Z"/><rect class="cls-5" x="24.6" y="41.25" width="14.8" height="16.65"/><rect class="cls-6" x="26.45" y="43.1" width="11.1" height="14.8"/><rect class="cls-5" x="31.07" y="43.1" width="1.85" height="14.8"/><rect class="cls-5" x="10.72" y="44.03" width="13.88" height="1.85"/><rect class="cls-5" x="39.4" y="44.03" width="13.88" height="1.85"/><rect class="cls-6" x="10.72" y="45.88" width="13.88" height="9.25"/><rect class="cls-6" x="39.4" y="45.88" width="13.88" height="9.25"/><rect class="cls-5" x="10.72" y="53.28" width="13.88" height="1.85"/><rect class="cls-5" x="39.4" y="53.28" width="13.88" height="1.85"/><rect class="cls-5" x="10.72" y="44.03" width="1.85" height="11.1"/><rect class="cls-5" x="51.43" y="44.03" width="1.85" height="11.1"/><polygon class="cls-4" points="30.77 6.09 30.77 12.01 27.68 12.01 27.68 6.09 24.6 6.09 24.6 14.97 30.77 14.97 30.77 20.9 33.85 20.9 33.85 6.09 30.77 6.09"/><path class="cls-4" d="M19.66,15h0a3.13,3.13,0,0,0,2.18-.87,2.88,2.88,0,0,0,.91-2.1v-3A2.88,2.88,0,0,0,21.84,7a3.13,3.13,0,0,0-2.18-.87H13.49v3h6.17v3H16.58a3.17,3.17,0,0,0-2.19.87,2.91,2.91,0,0,0-.9,2.1V20.9h9.26v-3H16.58V15Z"/><polygon class="cls-2" points="39.4 61.61 24.6 61.61 26.45 57.91 37.55 57.91 39.4 61.61"/></svg>