<svg id="Layer_1" data-name="Layer 1" xmlns="http://www.w3.org/2000/svg" viewBox="0 0 64 64"><defs><style>.cls-1{fill:#3f4347;}.cls-2{fill:#93979a;}.cls-3{fill:#d0d0d0;}.cls-4{fill:#afb7b7;}</style></defs><title>sjmdicon-microphone</title><rect class="cls-1" x="14.17" y="28.04" width="35.67" height="0.99"/><path class="cls-2" d="M45.87,24.57V39.11c0,10.44-6.65,14.75-13.87,14.75S18.13,49.55,18.13,39.11V24.57h-2V38.92c0,11.93,7.59,16.86,15.85,16.86s15.85-4.93,15.85-16.86V24.57Z"/><rect class="cls-2" x="30.02" y="55.78" width="3.96" height="3.96"/><path class="cls-1" d="M21.1,25.11V37.94A10.7,10.7,0,0,0,32,48.84a10.7,10.7,0,0,0,10.9-10.9V25.11Z"/><rect class="cls-1" x="29.03" y="51.82" width="5.94" height="4.95"/><path class="cls-2" d="M32,2.28c-6.13,0-10.9,3.77-10.9,9.9V25.05l21.8.06V12.18C42.9,6.05,38.13,2.28,32,2.28Z"/><path class="cls-3" d="M32,3.07c-5.63,0-10,3.65-10,9.57V25.05l20,.06V12.64C42,6.71,37.63,3.07,32,3.07Z"/><path class="cls-1" d="M45.87,61.72H18.13a35.85,35.85,0,0,1,13.87-3A35.85,35.85,0,0,1,45.87,61.72Z"/><rect class="cls-4" x="20.11" y="25.06" width="23.78" height="6.94"/><rect class="cls-1" x="19.12" y="24.57" width="25.76" height="1.98"/><rect class="cls-1" x="19.12" y="27.54" width="25.76" height="1.98"/><rect class="cls-1" x="19.12" y="30.51" width="25.76" height="1.98"/><rect class="cls-1" x="13.17" y="25.56" width="1.98" height="5.94"/><rect class="cls-1" x="48.84" y="25.56" width="1.98" height="5.94"/><path class="cls-2" d="M25.36,22.63a1.24,1.24,0,0,1-1.31,1.19,1.22,1.22,0,0,1-1.32-1.09,1.34,1.34,0,0,1,1.3-1.2A1.18,1.18,0,0,1,25.36,22.63Z"/><path class="cls-2" d="M30.67,22.54a1.33,1.33,0,0,1-2.66,0,1.32,1.32,0,0,1,1.32-1.29A1.29,1.29,0,0,1,30.67,22.54Z"/><path class="cls-2" d="M36,22.57a1.33,1.33,0,0,1-2.66,0,1.29,1.29,0,0,1,1.34-1.26A1.32,1.32,0,0,1,36,22.57Z"/><path class="cls-2" d="M41.27,22.73A1.22,1.22,0,0,1,40,23.82a1.24,1.24,0,0,1-1.31-1.19A1.18,1.18,0,0,1,40,21.53,1.34,1.34,0,0,1,41.27,22.73Z"/><path class="cls-2" d="M25.27,16.31A1.52,1.52,0,0,1,24,17.72c-.7.14-1.26-.22-1.26-.81A1.7,1.7,0,0,1,24,15.44,1,1,0,0,1,25.27,16.31Z"/><path class="cls-2" d="M30.63,15.71a1.38,1.38,0,0,1-1.35,1.34,1.2,1.2,0,0,1-1.36-1.14,1.45,1.45,0,0,1,1.34-1.4A1.23,1.23,0,0,1,30.63,15.71Z"/><path class="cls-2" d="M36.08,15.91a1.2,1.2,0,0,1-1.36,1.14,1.39,1.39,0,0,1-1.35-1.34,1.23,1.23,0,0,1,1.37-1.2A1.45,1.45,0,0,1,36.08,15.91Z"/><path class="cls-2" d="M41.27,16.91c0,.59-.56.95-1.26.81a1.52,1.52,0,0,1-1.28-1.41,1,1,0,0,1,1.3-.87A1.7,1.7,0,0,1,41.27,16.91Z"/><path class="cls-2" d="M28,19.24a1.36,1.36,0,0,1-1.31,1.32,1.19,1.19,0,0,1-1.34-1.09,1.43,1.43,0,0,1,1.3-1.35A1.17,1.17,0,0,1,28,19.24Z"/><path class="cls-2" d="M33.35,19.12a1.35,1.35,0,0,1-2.7,0,1.35,1.35,0,0,1,2.7,0Z"/><path class="cls-2" d="M38.69,19.47a1.19,1.19,0,0,1-1.34,1.09A1.36,1.36,0,0,1,36,19.24a1.16,1.16,0,0,1,1.35-1.12A1.43,1.43,0,0,1,38.69,19.47Z"/><path class="cls-2" d="M27.87,12.58a1.59,1.59,0,0,1-1.32,1.47c-.73.13-1.32-.25-1.33-.91a1.71,1.71,0,0,1,1.29-1.54A1,1,0,0,1,27.87,12.58Z"/><path class="cls-2" d="M33.39,12.29a1.4,1.4,0,0,1-2.78,0,1.39,1.39,0,0,1,2.78,0Z"/><path class="cls-2" d="M38.78,13.14c0,.66-.6,1-1.33.91a1.59,1.59,0,0,1-1.32-1.47,1,1,0,0,1,1.36-1A1.71,1.71,0,0,1,38.78,13.14Z"/><path class="cls-2" d="M25.17,10a2,2,0,0,1-1.24,1.65c-.68.27-1.2,0-1.2-.55a2.24,2.24,0,0,1,1.18-1.74C24.58,9,25.17,9.32,25.17,10Z"/><path class="cls-2" d="M30.6,8.88a1.51,1.51,0,0,1-1.39,1.4,1.14,1.14,0,0,1-1.39-1,1.6,1.6,0,0,1,1.37-1.5A1.19,1.19,0,0,1,30.6,8.88Z"/><path class="cls-2" d="M36.18,9.25a1.13,1.13,0,0,1-1.39,1,1.49,1.49,0,0,1-1.38-1.4,1.17,1.17,0,0,1,1.4-1.13A1.6,1.6,0,0,1,36.18,9.25Z"/><path class="cls-2" d="M41.27,11.08c0,.6-.52.82-1.2.55A2,2,0,0,1,38.82,10c0-.66.6-1,1.27-.64A2.24,2.24,0,0,1,41.27,11.08Z"/><path class="cls-2" d="M27.78,5.92a1.84,1.84,0,0,1-1.33,1.61c-.73.23-1.31-.06-1.32-.71a2,2,0,0,1,1.28-1.73A.94.94,0,0,1,27.78,5.92Z"/><path class="cls-2" d="M33.42,5.46a1.43,1.43,0,0,1-2.84,0,1.42,1.42,0,0,1,2.84,0Z"/><path class="cls-2" d="M38.87,6.82c0,.65-.59.94-1.32.71a1.84,1.84,0,0,1-1.33-1.61.94.94,0,0,1,1.37-.83A2,2,0,0,1,38.87,6.82Z"/></svg>