<svg id="Layer_1" data-name="Layer 1" xmlns="http://www.w3.org/2000/svg" viewBox="0 0 64 64"><defs><style>.cls-1{fill:#202527;}.cls-2{fill:#dddddc;}.cls-3{fill:#bfbdbd;}.cls-4{fill:#3f4347;}.cls-5{fill:#93979a;}</style></defs><title>sjmdicon-desktop</title><path class="cls-1" d="M62,6a4.3,4.3,0,0,0-4-4H6A4.3,4.3,0,0,0,2,6V44H62Z"/><path class="cls-2" d="M2,44v4a4.3,4.3,0,0,0,4,4H58a4.3,4.3,0,0,0,4-4V44Z"/><path class="cls-3" d="M24,54c0,4-4,4-8,4H48c-4,0-8,0-8-4V52H24Z"/><rect class="cls-4" x="6" y="6" width="52" height="34"/><circle class="cls-5" cx="32" cy="47.94" r="1"/><rect class="cls-5" x="16" y="58" width="32" height="4"/></svg>