<svg id="Layer_1" data-name="Layer 1" xmlns="http://www.w3.org/2000/svg" viewBox="0 0 64 64"><defs><style>.cls-1{fill:#d9e3e8;}.cls-2{fill:#ef5b7a;}.cls-3{fill:#fff;}.cls-4{fill:#8a969d;}.cls-5{fill:#b0bcc5;}</style></defs><title>sjmdicon-nametag</title><rect class="cls-1" x="3.65" y="16.05" width="56.7" height="44.29" rx="1.77"/><rect class="cls-2" x="6.31" y="18.71" width="51.38" height="38.98" rx="1.77"/><polygon class="cls-3" points="9.99 30.18 9.99 20.42 12.02 20.42 12.02 24.14 15.81 24.14 15.81 20.42 17.84 20.42 17.84 30.18 15.81 30.18 15.81 25.82 12.02 25.82 12.02 30.18 9.99 30.18"/><polygon class="cls-3" points="27.01 22.14 21.85 22.14 21.85 24.22 26.59 24.22 26.59 25.91 21.85 25.91 21.85 28.42 27.25 28.42 27.25 30.18 19.86 30.18 19.86 20.42 27.01 20.42 27.01 22.14"/><polygon class="cls-3" points="28.84 20.42 30.88 20.42 30.88 28.42 35.75 28.42 35.75 30.18 28.84 30.18 28.84 20.42"/><polygon class="cls-3" points="37.12 20.42 39.16 20.42 39.16 28.42 44.03 28.42 44.03 30.18 37.12 30.18 37.12 20.42 37.12 20.42"/><path class="cls-3" d="M51.65,27.83a4.05,4.05,0,0,0,.71-2.55,4,4,0,0,0-.71-2.54,2.54,2.54,0,0,0-3.86,0,4,4,0,0,0-.72,2.54,4,4,0,0,0,.72,2.55,2.54,2.54,0,0,0,3.86,0Zm1.27,1.48a4.25,4.25,0,0,1-3.2,1.14,4.23,4.23,0,0,1-3.19-1.14,5.26,5.26,0,0,1-1.49-4,5.15,5.15,0,0,1,1.49-4,4.23,4.23,0,0,1,3.19-1.14,4.25,4.25,0,0,1,3.2,1.14,5.15,5.15,0,0,1,1.48,4A5.26,5.26,0,0,1,52.92,29.31Z"/><path class="cls-4" d="M36.43,16.08a1.71,1.71,0,0,1-1.68,1.75h-5.5a1.71,1.71,0,0,1-1.68-1.75V6.21a1.71,1.71,0,0,1,1.68-1.74h5.5a1.71,1.71,0,0,1,1.68,1.74Z"/><path class="cls-5" d="M36.43,15.27A1.71,1.71,0,0,1,34.75,17h-5.5a1.71,1.71,0,0,1-1.68-1.74V5.39a1.71,1.71,0,0,1,1.68-1.74h5.5a1.71,1.71,0,0,1,1.68,1.74v9.88Z"/><rect class="cls-3" x="8.97" y="32" width="46.07" height="23.03" rx="1.77"/><path class="cls-2" d="M17,33.75H18.3V38h-.82V34.42L16.69,38h-.86L15,34.42c0,.08,0,.2,0,.34V38h-.82v-4.2h1.28l.76,3.3Z"/><path class="cls-2" d="M19.17,38.55h.1a1.76,1.76,0,0,0,.23,0,.48.48,0,0,0,.18-.07.41.41,0,0,0,.13-.2,1,1,0,0,0,.06-.19l-1.14-3.25h.9l.68,2.3.64-2.3h.87L20.75,37.9a4.44,4.44,0,0,1-.49,1.1.94.94,0,0,1-.72.21h-.37Z"/><path class="cls-2" d="M26.42,35a1,1,0,0,1,.31.84V38H25.9V36.06a1,1,0,0,0-.07-.38.45.45,0,0,0-.45-.23.54.54,0,0,0-.56.35,1.07,1.07,0,0,0-.08.47V38h-.82v-3.1h.79v.45A1.15,1.15,0,0,1,25,35a1,1,0,0,1,.63-.19A1.16,1.16,0,0,1,26.42,35Z"/><path class="cls-2" d="M29.21,36.44l-.15.08-.22.06-.19,0a1.09,1.09,0,0,0-.37.11.36.36,0,0,0-.19.34.38.38,0,0,0,.11.3.43.43,0,0,0,.29.1A.8.8,0,0,0,29,37.3a.63.63,0,0,0,.23-.56v-.3Zm-.49-.38A1.19,1.19,0,0,0,29,36a.25.25,0,0,0,.18-.23.26.26,0,0,0-.14-.26.81.81,0,0,0-.39-.08.54.54,0,0,0-.42.14.76.76,0,0,0-.11.29h-.79a1.25,1.25,0,0,1,.23-.67,1.36,1.36,0,0,1,1.11-.41,2,2,0,0,1,.91.2.78.78,0,0,1,.4.77v1.42c0,.1,0,.22,0,.36a.37.37,0,0,0,0,.22.19.19,0,0,0,.12.09V38h-.89a1.54,1.54,0,0,1,0-.17,1.11,1.11,0,0,1,0-.19,2,2,0,0,1-.39.31,1.21,1.21,0,0,1-.6.15,1,1,0,0,1-.7-.24.84.84,0,0,1-.28-.68.9.9,0,0,1,.45-.84,2,2,0,0,1,.72-.19Z"/><path class="cls-2" d="M34.61,34.85a1,1,0,0,1,.37.28.9.9,0,0,1,.17.4,2.69,2.69,0,0,1,0,.46v2h-.84V36a.79.79,0,0,0-.05-.29.43.43,0,0,0-.4-.22.48.48,0,0,0-.47.28,1,1,0,0,0-.06.36V38h-.82V36.1a1,1,0,0,0-.06-.4.4.4,0,0,0-.4-.23.49.49,0,0,0-.47.23.91.91,0,0,0-.06.38V38h-.83v-3.1h.79v.45A1.15,1.15,0,0,1,31.8,35a.91.91,0,0,1,.61-.19,1,1,0,0,1,.58.16,1,1,0,0,1,.26.37,1.09,1.09,0,0,1,.4-.4,1.28,1.28,0,0,1,.56-.13A1.1,1.1,0,0,1,34.61,34.85Z"/><path class="cls-2" d="M36.74,35.61a.83.83,0,0,0-.22.48h1.4a.64.64,0,0,0-.21-.49.72.72,0,0,0-.48-.17A.64.64,0,0,0,36.74,35.61ZM38,34.9a1.37,1.37,0,0,1,.53.46,1.55,1.55,0,0,1,.25.65,4.71,4.71,0,0,1,0,.61H36.5a.74.74,0,0,0,.33.66.79.79,0,0,0,.45.12.73.73,0,0,0,.45-.14A1,1,0,0,0,37.9,37h.83a1,1,0,0,1-.31.56,1.49,1.49,0,0,1-1.16.46,1.68,1.68,0,0,1-1.1-.39,1.48,1.48,0,0,1-.47-1.24,1.67,1.67,0,0,1,.43-1.24,1.47,1.47,0,0,1,1.11-.43A1.94,1.94,0,0,1,38,34.9Z"/><path class="cls-2" d="M40.81,34.84h.83V38h-.83Zm.83-.37h-.83v-.75h.83Z"/><path class="cls-2" d="M43.05,37a.56.56,0,0,0,.12.31.73.73,0,0,0,.56.16.81.81,0,0,0,.38-.07.24.24,0,0,0,.14-.22.22.22,0,0,0-.11-.2,4.74,4.74,0,0,0-.85-.25,1.76,1.76,0,0,1-.75-.33.72.72,0,0,1-.22-.56,1,1,0,0,1,.34-.74,1.42,1.42,0,0,1,1-.31,1.74,1.74,0,0,1,1,.24,1,1,0,0,1,.42.8h-.82a.57.57,0,0,0-.08-.25.57.57,0,0,0-.46-.17.62.62,0,0,0-.38.09.24.24,0,0,0-.11.19.21.21,0,0,0,.12.2,4.62,4.62,0,0,0,.85.23,1.61,1.61,0,0,1,.72.34.81.81,0,0,1,.24.59.92.92,0,0,1-.34.75,1.59,1.59,0,0,1-1.07.3,1.62,1.62,0,0,1-1.08-.31,1,1,0,0,1-.35-.79Z"/><rect class="cls-2" x="45.66" y="37.1" width="0.87" height="0.85"/><rect class="cls-2" x="47.28" y="37.1" width="0.86" height="0.85"/><rect class="cls-2" x="48.91" y="37.1" width="0.86" height="0.85"/></svg>